<svg xmlns="http://www.w3.org/2000/svg" width="52" height="52" viewBox="0 0 52 52">
  <g id="Dinner_icon" data-name="Dinner icon" transform="translate(-230 -230)">
    <path id="Path_173" data-name="Path 173" d="M256,230a26,26,0,1,0,26,26A26.03,26.03,0,0,0,256,230Zm0,50.267A24.267,24.267,0,1,1,280.267,256,24.294,24.294,0,0,1,256,280.267Z" fill="#2e482b"/>
    <path id="Path_174" data-name="Path 174" d="M241.58,241.024l-1.2-1.249c-.525.507-1.031,1.043-1.5,1.594l1.317,1.128C240.627,241.987,241.1,241.492,241.58,241.024Z" fill="#2e482b"/>
    <path id="Path_175" data-name="Path 175" d="M233.538,254.2l1.728.137A20.712,20.712,0,0,1,239.017,244l-1.415-1a22.469,22.469,0,0,0-4.064,11.2Z" fill="#2e482b"/>
    <path id="Path_176" data-name="Path 176" d="M268.134,238.952a3.752,3.752,0,0,0-7.415-.813c-.147.658-.265,1.323-.385,1.988A16.067,16.067,0,0,0,256,239.55V235.2h-1.734v10.4a4.328,4.328,0,0,1-1.757,3.483,4.188,4.188,0,0,0-1.638,3.545l.794,19.87a1.63,1.63,0,0,1-.462,1.2,1.687,1.687,0,0,1-2.368,0,1.637,1.637,0,0,1-.462-1.2l.621-19.872a4.186,4.186,0,0,0-1.639-3.54,4.306,4.306,0,0,1-.889-.884,4.358,4.358,0,0,1-.867-2.6V235.2h-1.733v9.7a16.415,16.415,0,0,0,2.865,24.693l-.089,2.851a3.379,3.379,0,1,0,6.755.23c0-.078,0-.157,0-.235l-.008-.182a16.154,16.154,0,0,0,8.055-.726l-.058.8a3.377,3.377,0,0,0,6.738.462c.006-.077.009-.153.009-.229v-5.452a16.4,16.4,0,0,0,0-22.21ZM246.8,267.488a14.676,14.676,0,0,1-2.67-20.182,5.937,5.937,0,0,0,2.2,3.172,2.462,2.462,0,0,1,.935,2.089Zm14.789,2.124a14.085,14.085,0,0,1-8.267.849l-.715-17.9a2.459,2.459,0,0,1,.934-2.086A6.054,6.054,0,0,0,256,245.6v-4.319a14.35,14.35,0,0,1,4.051.566,52.581,52.581,0,0,0-.584,7.7V258.6a.867.867,0,0,0,.866.867h2Zm4.814,2.945a1.644,1.644,0,0,1-3.288,0c0-.036,0-.074,0-.11l1.01-13.784a.867.867,0,0,0-.8-.928l-.063,0H261.2v-8.191a50.815,50.815,0,0,1,1.211-11.028,2.018,2.018,0,0,1,3.989.438ZM270.733,256a14.63,14.63,0,0,1-2.6,8.331V247.669A14.63,14.63,0,0,1,270.733,256Z" fill="#2e482b"/>
    <path id="Path_177" data-name="Path 177" d="M247.333,235.2h1.734v9.533h-1.734Z" fill="#2e482b"/>
    <path id="Path_178" data-name="Path 178" d="M250.8,235.2h1.733v9.533H250.8Z" fill="#2e482b"/>
  </g>
</svg>
