<svg xmlns="http://www.w3.org/2000/svg" width="52" height="47.756" viewBox="0 0 52 47.756">
  <g id="Lunch_icon" data-name="Lunch icon" transform="translate(-530 -1812)">
    <path id="Path_920" data-name="Path 920" d="M49.781,27.179h-1.8a21.8,21.8,0,0,0-2-7.884.76.76,0,1,0-1.379.641,20.3,20.3,0,0,1,1.849,7.243H11.608a.76.76,0,1,0,0,1.52H49.781a.7.7,0,0,1,.7.7v.928a.7.7,0,0,1-.7.7H2.219a.7.7,0,0,1-.7-.7V29.4a.7.7,0,0,1,.7-.7H8.063a.76.76,0,1,0,0-1.52H5.549A20.5,20.5,0,0,1,24.632,8.106h.008q.311-.019.614-.031l.121,0,.215-.006c.137,0,.273,0,.41,0,.182,0,.363,0,.545.009l.16.005c.141.005.279.011.418.019l.223.013a20.513,20.513,0,0,1,15.565,8.865.761.761,0,0,0,1.254-.861A22.035,22.035,0,0,0,29.118,6.763a3.7,3.7,0,0,0,.593-2.008c0-.413-.185-1.175-1.42-1.629a7.611,7.611,0,0,0-4.582,0c-1.235.454-1.419,1.216-1.419,1.629a3.715,3.715,0,0,0,.588,2A22.025,22.025,0,0,0,4.024,27.179H2.219A2.222,2.222,0,0,0,0,29.4v.928a2.221,2.221,0,0,0,2.219,2.219h8.194a9.582,9.582,0,0,0-1.168.943L9.23,33.5a.707.707,0,0,0-.065.069L5.553,37.959a2.1,2.1,0,0,0-2.863.594L1.27,40.647a2.1,2.1,0,0,0,.559,2.917l9.718,6.6a2.1,2.1,0,0,0,2.92-.559l1.42-2.094a2.1,2.1,0,0,0-.558-2.917l-.056-.037a4.914,4.914,0,0,1,2.56-1.545,16.7,16.7,0,0,1,6.149.1,14.512,14.512,0,0,0,6.2-.334l2.8-.773a14.433,14.433,0,0,0,5.1-2.582c.012-.009.022-.018.033-.028l4.809-4.259a2.348,2.348,0,0,0,.716-2.594h6.135A2.221,2.221,0,0,0,52,30.326V29.4A2.222,2.222,0,0,0,49.781,27.179ZM26,4.294a3.559,3.559,0,0,1,2.19.494,2.19,2.19,0,0,1-.97,1.786c-.15-.008-.3-.014-.445-.02l-.148-.005C26.415,6.542,26.2,6.54,26,6.54c-.145,0-.294,0-.443,0l-.218.006-.261.009c-.1.005-.2.009-.3.015a2.188,2.188,0,0,1-.969-1.786A3.553,3.553,0,0,1,26,4.294Zm5.455,28.618a2.606,2.606,0,0,0-.2-.367h7.3L35.4,34.633l-4.5,1.3-.152,0A2.588,2.588,0,0,0,31.455,32.912Zm-8.249-.367-1.1.229-.848-.229ZM14.628,46.659l-1.42,2.1a.58.58,0,0,1-.806.154l-9.718-6.6a.579.579,0,0,1-.155-.8l1.421-2.1a.571.571,0,0,1,.37-.244.522.522,0,0,1,.111-.011.567.567,0,0,1,.324.1l.525.356h0l9.194,6.245A.581.581,0,0,1,14.628,46.659ZM42,33.938c-.018.013-.035.027-.053.042L37.13,38.244a12.9,12.9,0,0,1-4.552,2.3l-2.8.774a12.951,12.951,0,0,1-5.545.3,18.1,18.1,0,0,0-6.743-.084,6.459,6.459,0,0,0-3.48,2.168l-7.19-4.884,3.49-4.239a7.162,7.162,0,0,1,4.6-2.031h.031a5.752,5.752,0,0,1,1.58.3l.335.092,5.037,1.359a.766.766,0,0,0,.353.01l6.6-1.375a1.131,1.131,0,0,1,.862.166,1.029,1.029,0,0,1,.363.433A1.064,1.064,0,0,1,29.57,34.9l-2.25,1.192a.76.76,0,0,0,.372,1.432l3.339-.072a.851.851,0,0,0,.195-.029l4.7-1.361a.808.808,0,0,0,.209-.1l4.746-3.142c.4-.246.928-.448,1.21-.032A.905.905,0,0,1,42,33.938Z" transform="translate(530 1809.227)" fill="#2e482b"/>
  </g>
</svg>
