<svg xmlns="http://www.w3.org/2000/svg" width="18" height="17.001" viewBox="0 0 18 17.001">
  <g id="Instagram" transform="translate(-1164 -5261)">
    <g id="Instagram-2" data-name="Instagram" transform="translate(1090.848 5221.397)">
      <ellipse id="Ellipse_3" data-name="Ellipse 3" cx="1.055" cy="0.997" rx="1.055" ry="0.997" transform="translate(85.862 42.638)" fill="#fff"/>
      <path id="Path_30" data-name="Path 30" d="M82.226,43.916A4.193,4.193,0,1,0,86.658,48.1,4.32,4.32,0,0,0,82.226,43.916Zm0,6.868a2.686,2.686,0,1,1,2.84-2.682A2.768,2.768,0,0,1,82.226,50.784Z" fill="#fff"/>
      <path id="Path_31" data-name="Path 31" d="M85.745,56.6H78.559A5.269,5.269,0,0,1,73.152,51.5V44.709A5.269,5.269,0,0,1,78.559,39.6h7.186a5.269,5.269,0,0,1,5.407,5.106V51.5A5.269,5.269,0,0,1,85.745,56.6ZM78.559,41.2a3.619,3.619,0,0,0-3.713,3.507V51.5A3.618,3.618,0,0,0,78.559,55h7.186A3.618,3.618,0,0,0,89.458,51.5V44.709A3.619,3.619,0,0,0,85.745,41.2Z" fill="#fff"/>
    </g>
    <path id="Color_Overlay" data-name="Color Overlay" d="M1169.407,5278a5.27,5.27,0,0,1-5.407-5.107v-6.788a5.27,5.27,0,0,1,5.407-5.106h7.186a5.269,5.269,0,0,1,5.407,5.106v6.788a5.269,5.269,0,0,1-5.407,5.107Zm-3.714-11.9v6.788a3.619,3.619,0,0,0,3.714,3.507h7.186a3.618,3.618,0,0,0,3.714-3.507v-6.788a3.618,3.618,0,0,0-3.714-3.506h-7.186A3.619,3.619,0,0,0,1165.693,5266.105Zm2.948,3.394a4.44,4.44,0,1,1,4.433,4.187A4.32,4.32,0,0,1,1168.641,5269.5Zm1.594,0a2.844,2.844,0,1,0,2.84-2.681A2.767,2.767,0,0,0,1170.234,5269.5Zm6.476-4.467a1.057,1.057,0,1,1,1.056,1A1.027,1.027,0,0,1,1176.711,5265.033Z" fill="#333"/>
  </g>
</svg>
