<svg xmlns="http://www.w3.org/2000/svg" width="14.001" height="14" viewBox="0 0 14.001 14">
  <g id="Linkedin" transform="translate(-1225.999 -5262)">
    <g id="Linkedin-2" data-name="Linkedin" transform="translate(1065.298 5179.448)">
      <path id="Path_34" data-name="Path 34" d="M160.934,87.2h2.9v9.353h-2.9Zm1.453-4.647a1.686,1.686,0,1,1-1.684,1.684,1.684,1.684,0,0,1,1.684-1.684" fill="#fff"/>
      <path id="Path_35" data-name="Path 35" d="M165.658,87.2h2.782v1.279h.038a3.047,3.047,0,0,1,2.746-1.51c2.936,0,3.478,1.936,3.478,4.455v5.129h-2.9V92.005c0-1.086-.021-2.48-1.507-2.48-1.51,0-1.74,1.181-1.74,2.4v4.626h-2.9Z" fill="#fff"/>
    </g>
    <path id="Color_Overlay" data-name="Color Overlay" d="M1237.1,5276v-4.547c0-1.084-.021-2.48-1.507-2.48-1.511,0-1.741,1.181-1.741,2.4V5276h-2.9v-9.352h2.783v1.279h.037a3.049,3.049,0,0,1,2.748-1.511c2.936,0,3.477,1.936,3.477,4.454V5276Zm-10.871,0v-9.352h2.905V5276Zm-.232-12.315a1.684,1.684,0,1,1,1.684,1.687A1.686,1.686,0,0,1,1226,5263.685Z" fill="#333"/>
  </g>
</svg>
