<svg xmlns="http://www.w3.org/2000/svg" width="10.5" height="14" viewBox="0 0 10.5 14">
  <path id="Path_370" data-name="Path 370" d="M7-12.444a5.1,5.1,0,0,0-2.674.729,5.1,5.1,0,0,0-1.9,1.993A5.953,5.953,0,0,0,1.75-6.854q0,1.6,1.944,4.521A40.164,40.164,0,0,0,6.514,1.361q.1.194.438.194a.723.723,0,0,0,.535-.194Q9.042-.486,10.306-2.333,12.25-5.25,12.25-6.854a5.953,5.953,0,0,0-.681-2.868,5.1,5.1,0,0,0-1.9-1.993A5.1,5.1,0,0,0,7-12.444ZM7,.194Q5.347-1.847,4.181-3.6A7.349,7.349,0,0,1,2.917-6.9,4.646,4.646,0,0,1,3.451-9.09a4.11,4.11,0,0,1,1.458-1.6,3.746,3.746,0,0,1,2.042-.583,3.993,3.993,0,0,1,2.09.583,3.994,3.994,0,0,1,1.507,1.6A4.646,4.646,0,0,1,11.083-6.9,7.349,7.349,0,0,1,9.819-3.6Q8.653-1.847,7,.194ZM7-9.528a2.25,2.25,0,0,0-1.653.681,2.25,2.25,0,0,0-.681,1.653,2.25,2.25,0,0,0,.681,1.653A2.25,2.25,0,0,0,7-4.861a2.25,2.25,0,0,0,1.653-.681,2.25,2.25,0,0,0,.681-1.653,2.25,2.25,0,0,0-.681-1.653A2.25,2.25,0,0,0,7-9.528Zm0,3.5a1.125,1.125,0,0,1-.826-.34,1.125,1.125,0,0,1-.34-.826,1.125,1.125,0,0,1,.34-.826A1.125,1.125,0,0,1,7-8.361a1.125,1.125,0,0,1,.826.34,1.125,1.125,0,0,1,.34.826,1.125,1.125,0,0,1-.34.826A1.125,1.125,0,0,1,7-6.028Z" transform="translate(-1.75 12.444)" fill="#919191"/>
</svg>
