<svg xmlns="http://www.w3.org/2000/svg" width="15.375" height="16.414" viewBox="0 0 15.375 16.414">
  <g id="Group_1" data-name="Group 1" transform="translate(-242.367 -241.408)">
    <path id="Path_1" data-name="Path 1" d="M256.9,251.683a.323.323,0,0,1-.3-.205.317.317,0,0,1,.1-.356.328.328,0,0,1,.367-.027.317.317,0,0,1,.148.334A.322.322,0,0,1,256.9,251.683Z" transform="translate(0.52 0.501)" fill="#919191"/>
    <path id="Path_2" data-name="Path 2" d="M251.527,248.348a2.977,2.977,0,1,0,3.028,2.976A3.006,3.006,0,0,0,251.527,248.348Zm0,6.585a3.609,3.609,0,1,1,3.666-3.608A3.642,3.642,0,0,1,251.527,254.933Z" transform="translate(0.201 0.461)" fill="#919191"/>
    <path id="Path_3" data-name="Path 3" d="M248.381,257.18a5.373,5.373,0,0,1-5.375-5.36,13.983,13.983,0,0,1,1.928-6.487c1.134-2,2.487-3.284,3.447-3.284a1.941,1.941,0,0,1,1.16.512,11.429,11.429,0,0,0-1.814,2.455,14.642,14.642,0,0,0-2.013,6.8,6.006,6.006,0,0,0,3.247,5.327A5,5,0,0,1,248.381,257.18Zm8.957-4.332a.32.32,0,0,0-.386.236,5.377,5.377,0,0,1-10.6-1.264,13.983,13.983,0,0,1,1.928-6.487c1.135-2,2.488-3.284,3.447-3.284.88,0,2.049,1.026,3.128,2.746a15.335,15.335,0,0,1,2.163,5.818.319.319,0,1,0,.632-.085,16.021,16.021,0,0,0-2.256-6.076c-1.215-1.935-2.552-3.045-3.669-3.045a2.8,2.8,0,0,0-1.7.721,2.619,2.619,0,0,0-1.644-.721,3.2,3.2,0,0,0-2.1,1.065,11.208,11.208,0,0,0-1.905,2.543,14.642,14.642,0,0,0-2.013,6.8,6.015,6.015,0,0,0,6.014,6,5.555,5.555,0,0,0,1.643-.245,6.015,6.015,0,0,0,7.55-4.341A.321.321,0,0,0,257.339,252.849Z" transform="translate(0)" fill="#919191"/>
  </g>
</svg>
