<svg xmlns="http://www.w3.org/2000/svg" width="16.174" height="16.175" viewBox="0 0 16.174 16.175">
  <g id="Group_1" data-name="Group 1" transform="translate(-128.408 -2544.407)">
    <path id="Path_1" data-name="Path 1" d="M142.688,2550.182a.271.271,0,0,0-.154.244v7.674a.269.269,0,0,1-.539,0v-7.674a.271.271,0,0,0-.154-.244,1.944,1.944,0,0,1-.924-1.787c0-1.04.605-1.888,1.348-1.888s1.348.847,1.348,1.888A1.944,1.944,0,0,1,142.688,2550.182Zm-.424-4.213a2.211,2.211,0,0,0-1.887,2.427,2.562,2.562,0,0,0,1.077,2.192v7.512a.809.809,0,0,0,1.618,0v-7.512a2.562,2.562,0,0,0,1.077-2.192A2.211,2.211,0,0,0,142.265,2545.969Z" transform="translate(0.431 0.056)" fill="#919191"/>
    <path id="Path_2" data-name="Path 2" d="M131.644,2549.474a.27.27,0,0,1-.269.27h-.54a.269.269,0,0,0-.269.269v8.087a.269.269,0,0,1-.539,0v-8.087a.27.27,0,0,0-.27-.269h-.539a.27.27,0,0,1-.269-.27v-2.7a.269.269,0,1,1,.539,0v1.617a.27.27,0,0,0,.54,0v-1.617a.269.269,0,1,1,.539,0v1.617a.269.269,0,0,0,.539,0v-1.617a.27.27,0,1,1,.54,0Zm-.269-3.5a.809.809,0,0,1-1.079,0,.809.809,0,0,1-1.079,0,.81.81,0,0,0-.809.809v2.7a.809.809,0,0,0,.809.808h.269v7.818a.809.809,0,1,0,1.617,0v-7.818h.27a.809.809,0,0,0,.808-.808v-2.7A.809.809,0,0,0,131.374,2545.969Z" transform="translate(0 0.056)" fill="#919191"/>
    <path id="Path_3" data-name="Path 3" d="M138.882,2557.106a3.212,3.212,0,0,1-2.222.7,2.514,2.514,0,0,1,2.918-2.919A3.2,3.2,0,0,1,138.882,2557.106Zm-2.363-7.075h-.347a2.987,2.987,0,0,1-.9-1.888,3.2,3.2,0,0,1,1.077-2.062,3.191,3.191,0,0,1,1.079,2.063A2.992,2.992,0,0,1,136.519,2550.031Zm-.489,7.772a2.515,2.515,0,0,1-2.918-2.919,2.513,2.513,0,0,1,2.918,2.919Zm0-4.27a2.514,2.514,0,0,1-2.918-2.918,2.514,2.514,0,0,1,2.918,2.918Zm1.327-2.221a3.2,3.2,0,0,1,2.222-.7,2.514,2.514,0,0,1-2.92,2.918A3.186,3.186,0,0,1,137.357,2551.313Zm2.507,3.048a3.931,3.931,0,0,0-2.888.839,2.439,2.439,0,0,0-.361.468v-1.6c.044,0,.092,0,.146,0a3.615,3.615,0,0,0,2.5-.857,3.924,3.924,0,0,0,.839-2.888.268.268,0,0,0-.238-.239,3.932,3.932,0,0,0-2.888.839,2.439,2.439,0,0,0-.361.468v-.706a3.8,3.8,0,0,0,1.348-2.55,3.925,3.925,0,0,0-1.448-2.635.269.269,0,0,0-.339,0,3.931,3.931,0,0,0-1.448,2.635,3.8,3.8,0,0,0,1.348,2.55v.707a2.375,2.375,0,0,0-.361-.469,3.93,3.93,0,0,0-2.888-.84.27.27,0,0,0-.239.239,3.939,3.939,0,0,0,.84,2.889,3.615,3.615,0,0,0,2.5.857l.146,0v1.6a2.41,2.41,0,0,0-.361-.468,3.929,3.929,0,0,0-2.888-.84.269.269,0,0,0-.239.239,3.939,3.939,0,0,0,.84,2.889,3.617,3.617,0,0,0,2.5.857l.147,0v1.123h.54v-1.124l.147,0a3.616,3.616,0,0,0,2.5-.857,3.926,3.926,0,0,0,.839-2.889A.266.266,0,0,0,139.865,2554.361Z" transform="translate(0.15 0.037)" fill="#919191"/>
    <path id="Path_4" data-name="Path 4" d="M132.48,2545.367c-.158.087-.314.181-.465.277l.291.455q.211-.137.434-.258Z" transform="translate(0.13 0.035)" fill="#919191"/>
    <path id="Path_5" data-name="Path 5" d="M135.956,2544.412l.018.539c.168-.006.337,0,.5,0l.019-.539C136.317,2544.406,136.135,2544.406,135.956,2544.412Z" transform="translate(0.272 0)" fill="#919191"/>
    <path id="Path_6" data-name="Path 6" d="M135.454,2544.446c-.178.018-.358.042-.536.072l.089.532c.165-.028.332-.051.5-.067Z" transform="translate(0.235 0.001)" fill="#919191"/>
    <path id="Path_7" data-name="Path 7" d="M137,2544.447l-.053.536c.168.016.335.039.5.067l.089-.531C137.358,2544.489,137.178,2544.465,137,2544.447Z" transform="translate(0.308 0.001)" fill="#919191"/>
    <path id="Path_8" data-name="Path 8" d="M134.424,2544.619c-.174.041-.349.089-.521.142l.16.515c.16-.049.322-.093.487-.132Z" transform="translate(0.198 0.008)" fill="#919191"/>
    <path id="Path_9" data-name="Path 9" d="M138.031,2544.619l-.125.525c.164.04.326.085.486.133l.161-.515C138.383,2544.709,138.206,2544.661,138.031,2544.619Z" transform="translate(0.342 0.008)" fill="#919191"/>
    <path id="Path_10" data-name="Path 10" d="M133.427,2544.928c-.168.064-.336.136-.5.211l.227.489c.152-.07.307-.137.464-.2Z" transform="translate(0.163 0.019)" fill="#919191"/>
    <path id="Path_11" data-name="Path 11" d="M139.978,2545.37l-.261.471q.222.123.434.258l.291-.454C140.291,2545.549,140.136,2545.457,139.978,2545.37Z" transform="translate(0.407 0.034)" fill="#919191"/>
    <path id="Path_12" data-name="Path 12" d="M139.03,2544.93l-.195.5c.157.061.312.126.464.2l.228-.488C139.365,2545.066,139.2,2544.994,139.03,2544.93Z" transform="translate(0.376 0.019)" fill="#919191"/>
    <path id="Path_13" data-name="Path 13" d="M133.154,2558.822l-.228.488c.162.076.328.147.5.212l.194-.5C133.461,2558.959,133.305,2558.892,133.154,2558.822Z" transform="translate(0.163 0.519)" fill="#919191"/>
    <path id="Path_14" data-name="Path 14" d="M137.442,2559.4c-.165.029-.333.051-.5.067l.053.537c.179-.017.36-.042.537-.071Z" transform="translate(0.307 0.54)" fill="#919191"/>
    <path id="Path_15" data-name="Path 15" d="M132.3,2558.353l-.291.454c.151.1.307.19.464.275l.26-.471C132.589,2558.529,132.444,2558.443,132.3,2558.353Z" transform="translate(0.13 0.503)" fill="#919191"/>
    <path id="Path_16" data-name="Path 16" d="M134.06,2559.173l-.161.515c.17.053.346.1.521.142l.125-.523C134.382,2559.266,134.219,2559.221,134.06,2559.173Z" transform="translate(0.198 0.532)" fill="#919191"/>
    <path id="Path_17" data-name="Path 17" d="M136.474,2559.5c-.168.006-.338,0-.506,0l-.018.538c.09,0,.181.006.272.006s.179,0,.268-.006Z" transform="translate(0.272 0.544)" fill="#919191"/>
    <path id="Path_18" data-name="Path 18" d="M140.148,2558.355c-.142.091-.286.176-.434.258l.26.472c.157-.087.314-.179.465-.277Z" transform="translate(0.407 0.503)" fill="#919191"/>
    <path id="Path_19" data-name="Path 19" d="M135,2559.4l-.089.532c.177.029.357.053.536.071l.054-.537C135.334,2559.449,135.168,2559.426,135,2559.4Z" transform="translate(0.234 0.54)" fill="#919191"/>
    <path id="Path_20" data-name="Path 20" d="M138.389,2559.174c-.161.05-.322.094-.487.132l.124.526c.174-.042.35-.09.522-.143Z" transform="translate(0.342 0.532)" fill="#919191"/>
    <path id="Path_21" data-name="Path 21" d="M139.3,2558.824c-.152.071-.307.136-.464.2l.194.5c.168-.064.335-.135.5-.21Z" transform="translate(0.376 0.52)" fill="#919191"/>
  </g>
</svg>
