<svg xmlns="http://www.w3.org/2000/svg" width="16" height="13" viewBox="0 0 16 13">
  <g id="Twitter" transform="translate(-1105 -5263)">
    <g id="Twitter-2" data-name="Twitter" transform="translate(992.171 5221.455)">
      <path id="Path_28" data-name="Path 28" d="M128.763,43.1a6.676,6.676,0,0,1-1.618.455c.26-.043.642-.508.8-.7a2.918,2.918,0,0,0,.537-.967c.014-.027.024-.062,0-.083a.093.093,0,0,0-.086.007,8.338,8.338,0,0,1-1.918.725.128.128,0,0,1-.132-.035,1.69,1.69,0,0,0-.168-.169,3.4,3.4,0,0,0-.929-.562,3.274,3.274,0,0,0-1.425-.227,3.442,3.442,0,0,0-1.352.377,3.479,3.479,0,0,0-1.091.88,3.288,3.288,0,0,0-.651,1.288,3.447,3.447,0,0,0-.035,1.36c.01.076,0,.086-.066.076a10.293,10.293,0,0,1-6.592-3.312c-.077-.086-.119-.086-.181.007a3.267,3.267,0,0,0,.569,3.9c.129.121.262.242.405.352a3.388,3.388,0,0,1-1.272-.352c-.077-.048-.116-.021-.123.066a1.952,1.952,0,0,0,.021.373,3.345,3.345,0,0,0,2.083,2.66,1.972,1.972,0,0,0,.423.127,3.815,3.815,0,0,1-1.248.038c-.091-.017-.126.028-.091.114a3.5,3.5,0,0,0,2.622,2.167c.119.021.238.021.357.048-.007.011-.014.011-.021.021a4.171,4.171,0,0,1-1.79.937,6.484,6.484,0,0,1-2.719.343c-.146-.021-.177-.019-.216,0s-.005.059.042.1c.185.12.374.228.566.331a9.036,9.036,0,0,0,1.818.717A9.772,9.772,0,0,0,124.67,52a9.661,9.661,0,0,0,2.6-7.1c0-.1.122-.158.195-.212a6.308,6.308,0,0,0,1.279-1.313.4.4,0,0,0,.085-.252V43.1C128.829,43.062,128.828,43.075,128.763,43.1Z" fill="#fff"/>
    </g>
    <path id="Color_Overlay" data-name="Color Overlay" d="M1107.443,5275.619a9.007,9.007,0,0,1-1.817-.716c-.193-.1-.381-.212-.567-.331-.046-.038-.082-.073-.041-.1s.07-.021.216,0a6.5,6.5,0,0,0,2.719-.344,4.175,4.175,0,0,0,1.79-.936c.007-.011.013-.011.021-.021-.119-.028-.238-.028-.358-.047a3.5,3.5,0,0,1-2.621-2.167c-.034-.087,0-.131.091-.115a3.837,3.837,0,0,0,1.247-.037,2.042,2.042,0,0,1-.424-.127,3.351,3.351,0,0,1-2.083-2.661,2.016,2.016,0,0,1-.021-.374c.008-.086.046-.114.123-.066a3.382,3.382,0,0,0,1.273.352,4.972,4.972,0,0,1-.405-.352,3.267,3.267,0,0,1-.571-3.9c.063-.093.106-.093.181-.007a10.294,10.294,0,0,0,6.593,3.312c.069.01.076,0,.066-.076a3.434,3.434,0,0,1,.034-1.36,3.3,3.3,0,0,1,.651-1.289,3.507,3.507,0,0,1,1.091-.879,3.447,3.447,0,0,1,1.352-.376,3.254,3.254,0,0,1,1.425.227,3.41,3.41,0,0,1,.93.562,1.8,1.8,0,0,1,.168.169.126.126,0,0,0,.131.034,8.344,8.344,0,0,0,1.919-.724.1.1,0,0,1,.086-.008c.028.021.017.057,0,.083a2.922,2.922,0,0,1-.538.968c-.154.187-.535.653-.8.7a6.708,6.708,0,0,0,1.618-.456c.065-.029.066-.041.066,0v.013a.4.4,0,0,1-.085.253,6.358,6.358,0,0,1-1.279,1.313c-.073.054-.195.11-.195.212a9.66,9.66,0,0,1-2.6,7.1,9.3,9.3,0,0,1-6.563,2.55A10.781,10.781,0,0,1,1107.443,5275.619Z" fill="#333"/>
  </g>
</svg>
