<svg xmlns="http://www.w3.org/2000/svg" width="18.202" height="18.045" viewBox="0 0 18.202 18.045">
  <g id="Veg" transform="translate(0.12 0.015)">
    <g id="Veg-2" data-name="Veg" transform="translate(0 0)">
      <g id="Group_152" data-name="Group 152" transform="translate(0.052 11.419)">
        <g id="Group_151" data-name="Group 151">
          <path id="Path_123" data-name="Path 123" d="M408.673,305.643H391.247a.3.3,0,0,0-.3.3,6.317,6.317,0,0,0,6.31,6.31h5.409a6.317,6.317,0,0,0,6.31-6.31A.3.3,0,0,0,408.673,305.643Zm-6.009,6.009h-5.409a5.716,5.716,0,0,1-5.7-5.409h16.811A5.716,5.716,0,0,1,402.664,311.652Z" transform="translate(-390.946 -305.643)" fill="#919191"/>
        </g>
      </g>
      <g id="Group_154" data-name="Group 154" transform="translate(6.362 0)">
        <g id="Group_153" data-name="Group 153">
          <path id="Path_124" data-name="Path 124" d="M420.96,271.85c0-.022,0-.044,0-.077a1.247,1.247,0,0,0-.841-1.061l.34-.34a1.609,1.609,0,0,0,.133-2.155,1.58,1.58,0,0,0-2.221-.215c-.038.032-.075.065-.112.1l-.37.375a1.254,1.254,0,0,0-1.071-.837,1.2,1.2,0,0,0-1.265,1.136c0,.022,0,.044,0,.066v.461a1.193,1.193,0,0,0-.6-.162l-.078,0a1.245,1.245,0,0,0-1.126,1.251v.409a1.2,1.2,0,0,0-.6-.16l-.077,0a1.246,1.246,0,0,0-1.126,1.252v4.456a.3.3,0,0,0,.3.3h5.108a1.2,1.2,0,0,0,1.04-1.8h.406a1.243,1.243,0,0,0,1.258-1.138.59.59,0,0,1,.55-1.016A1.194,1.194,0,0,0,420.96,271.85Zm-.777.424a.6.6,0,0,1-.425.175h-.9a.3.3,0,0,0,0,.6h.033a.6.6,0,0,1,.569.621.64.64,0,0,1-.653.581h-1.451a.3.3,0,0,0,0,.6.6.6,0,1,1,0,1.2h-4.807v-4.161a.641.641,0,0,1,.569-.647h.033a.6.6,0,0,1,.6.6v0a.3.3,0,0,0,.3.3h0a.3.3,0,0,0,.3-.3h0v-1.456a.642.642,0,0,1,.569-.648h.032a.6.6,0,0,1,.6.6h0a.3.3,0,0,0,.3.3h0a.3.3,0,0,0,.3-.3h0v-1.535a.6.6,0,0,1,.62-.569.643.643,0,0,1,.58.654v.249a.3.3,0,0,0,.514.211l.815-.827c.022-.022.045-.043.069-.062a.977.977,0,0,1,1.371.129,1.01,1.01,0,0,1-.088,1.35l-.79.79a.3.3,0,0,0,.212.513h.265a.64.64,0,0,1,.636.569v.033A.6.6,0,0,1,420.182,272.275Z" transform="translate(-411.944 -267.641)" fill="#919191"/>
        </g>
      </g>
      <g id="Group_156" data-name="Group 156" transform="translate(4.648 1.891)">
        <g id="Group_155" data-name="Group 155" transform="translate(0 0)">
          <rect id="Rectangle_23" data-name="Rectangle 23" width="11.898" height="0.601" transform="translate(0 8.413) rotate(-45.001)" fill="#919191"/>
        </g>
      </g>
      <g id="Group_158" data-name="Group 158" transform="translate(11.338 2.324)">
        <g id="Group_157" data-name="Group 157" transform="translate(0 0)">
          <rect id="Rectangle_24" data-name="Rectangle 24" height="1" transform="translate(-0.459 -0.339)" fill="#919191"/>
        </g>
      </g>
      <g id="Group_160" data-name="Group 160" transform="translate(9.07 3.458)">
        <g id="Group_159" data-name="Group 159" transform="translate(0 0)">
          <rect id="Rectangle_25" data-name="Rectangle 25" width="1" height="3" transform="translate(-0.191 -0.473)" fill="#919191"/>
        </g>
      </g>
      <g id="Group_162" data-name="Group 162" transform="translate(6.803 5.726)">
        <g id="Group_161" data-name="Group 161" transform="translate(0 0)">
          <rect id="Rectangle_26" data-name="Rectangle 26" width="1" height="1" transform="translate(0.077 0.259)" fill="#919191"/>
        </g>
      </g>
      <g id="Group_164" data-name="Group 164" transform="translate(11.338 3.458)">
        <g id="Group_163" data-name="Group 163" transform="translate(0 0)">
          <rect id="Rectangle_27" data-name="Rectangle 27" width="3" transform="translate(-0.459 -0.473)" fill="#919191"/>
        </g>
      </g>
      <g id="Group_166" data-name="Group 166" transform="translate(10.204 5.726)">
        <g id="Group_165" data-name="Group 165" transform="translate(0 0)">
          <rect id="Rectangle_28" data-name="Rectangle 28" width="1" transform="translate(-0.325 0.259)" fill="#919191"/>
        </g>
      </g>
      <g id="Group_168" data-name="Group 168" transform="translate(7.937 6.859)">
        <g id="Group_167" data-name="Group 167" transform="translate(0 0)">
          <rect id="Rectangle_29" data-name="Rectangle 29" width="2" transform="translate(-0.057 0.126)" fill="#919191"/>
        </g>
      </g>
      <g id="Group_170" data-name="Group 170" transform="translate(1.141 0.685)">
        <g id="Group_169" data-name="Group 169">
          <path id="Path_125" data-name="Path 125" d="M399.087,270.625v0a1.386,1.386,0,0,0-1.92-.383c-.02.013-.039.027-.062.043l-.108.082-.1-.075a1.382,1.382,0,1,0-1.647,2.2l.253.2v.154a1.5,1.5,0,1,0,3,0v-.154l.266-.208A1.383,1.383,0,0,0,399.087,270.625ZM398.4,272l-.385.3a.3.3,0,0,0-.115.237v.3a.9.9,0,0,1-1.8,0v-.3a.3.3,0,0,0-.115-.237l-.385-.3a.39.39,0,0,0-.036-.024.781.781,0,1,1,.929-1.241.331.331,0,0,0,.033.027l.3.216a.3.3,0,0,0,.357,0l.317-.238a.777.777,0,0,1,.9,1.264Z" transform="translate(-394.567 -269.919)" fill="#919191"/>
        </g>
      </g>
      <g id="Group_172" data-name="Group 172" transform="translate(6.803 0.056)">
        <g id="Group_171" data-name="Group 171" transform="translate(0)">
          <rect id="Rectangle_30" data-name="Rectangle 30" transform="translate(0.076 -0.071)" fill="#919191"/>
        </g>
      </g>
      <g id="Group_174" data-name="Group 174" transform="translate(7.937 10.261)">
        <g id="Group_173" data-name="Group 173" transform="translate(0 0)">
          <rect id="Rectangle_31" data-name="Rectangle 31" width="1" height="1" transform="translate(-0.057 -0.276)" fill="#919191"/>
        </g>
      </g>
      <g id="Group_176" data-name="Group 176" transform="translate(16.278 1.804)">
        <g id="Group_175" data-name="Group 175">
          <path id="Path_126" data-name="Path 126" d="M444.942,273.646v.6a.6.6,0,1,1,0,1.2v.6a1.2,1.2,0,1,0,0-2.4Z" transform="translate(-444.942 -273.646)" fill="#919191"/>
        </g>
      </g>
      <g id="Group_178" data-name="Group 178" transform="translate(0 4.592)">
        <g id="Group_177" data-name="Group 177" transform="translate(0 0)">
          <rect id="Rectangle_32" data-name="Rectangle 32" width="1" transform="translate(-0.12 0.393)" fill="#919191"/>
        </g>
      </g>
      <g id="Group_180" data-name="Group 180" transform="translate(0 3.458)">
        <g id="Group_179" data-name="Group 179" transform="translate(0 0)">
          <rect id="Rectangle_33" data-name="Rectangle 33" transform="translate(-0.12 -0.473)" fill="#919191"/>
        </g>
      </g>
      <g id="Group_182" data-name="Group 182" transform="translate(10.569 9.616)">
        <g id="Group_181" data-name="Group 181">
          <path id="Path_127" data-name="Path 127" d="M427.145,299.643a1.2,1.2,0,0,0-1.2,1.2h.6a.6.6,0,0,1,1.2,0h.6A1.2,1.2,0,0,0,427.145,299.643Z" transform="translate(-425.943 -299.643)" fill="#919191"/>
        </g>
      </g>
      <g id="Group_184" data-name="Group 184" transform="translate(0.052 6.011)">
        <g id="Group_183" data-name="Group 183">
          <path id="Path_128" data-name="Path 128" d="M394.552,288.545h-.038a1.2,1.2,0,0,0-2.328,0h-.038a1.2,1.2,0,1,0,0,2.4h2.4a1.2,1.2,0,1,0,0-2.4Zm0,1.8h-2.4a.6.6,0,1,1,0-1.2h.3a.3.3,0,0,0,.3-.3.6.6,0,0,1,1.2,0,.3.3,0,0,0,.3.3h.3a.6.6,0,1,1,0,1.2Z" transform="translate(-390.946 -287.644)" fill="#919191"/>
        </g>
      </g>
      <g id="Group_186" data-name="Group 186" transform="translate(1.555 8.715)">
        <g id="Group_185" data-name="Group 185">
          <path id="Path_129" data-name="Path 129" d="M397.448,296.643h-1.2a.3.3,0,0,0-.3.3v1.2a.3.3,0,0,0,.3.3h1.2a.3.3,0,0,0,.3-.3v-1.2A.3.3,0,0,0,397.448,296.643Zm-.3,1.2h-.6v-.6h.6v.6Z" transform="translate(-395.946 -296.643)" fill="#919191"/>
        </g>
      </g>
      <g id="Group_188" data-name="Group 188" transform="translate(15.076 7.813)">
        <g id="Group_187" data-name="Group 187">
          <path id="Path_130" data-name="Path 130" d="M441.844,293.643a.9.9,0,1,0,.9.9A.9.9,0,0,0,441.844,293.643Zm0,1.2a.3.3,0,1,1,.3-.3A.3.3,0,0,1,441.844,294.845Z" transform="translate(-440.942 -293.643)" fill="#919191"/>
        </g>
      </g>
      <g id="Group_190" data-name="Group 190" transform="translate(13.874 6.612)">
        <g id="Group_189" data-name="Group 189">
          <path id="Path_131" data-name="Path 131" d="M439.045,289.644a2.1,2.1,0,1,0,2.1,2.1A2.106,2.106,0,0,0,439.045,289.644Zm0,3.606a1.5,1.5,0,1,1,1.5-1.5A1.5,1.5,0,0,1,439.045,293.25Z" transform="translate(-436.942 -289.644)" fill="#919191"/>
        </g>
      </g>
    </g>
  </g>
</svg>
