<svg id="Accessible" xmlns="http://www.w3.org/2000/svg" width="15.626" height="18.029" viewBox="0 0 15.626 18.029">
  <g id="Group_149" data-name="Group 149" transform="translate(0 0)">
    <path id="Path_109" data-name="Path 109" d="M247.161,259.531a6.053,6.053,0,0,0,4.38-1.846.4.4,0,0,0-.012-.569.411.411,0,0,0-.576.012,5.268,5.268,0,0,1-9.047-3.6,5.176,5.176,0,0,1,2.83-4.61.4.4,0,0,0,.173-.543.41.41,0,0,0-.55-.171,5.978,5.978,0,0,0-3.268,5.324,6.043,6.043,0,0,0,6.07,6Z" transform="translate(-241.09 -241.502)" fill="#919191"/>
    <path id="Path_110" data-name="Path 110" d="M249.009,255.376a.4.4,0,0,0,.061-.566.411.411,0,0,0-.573-.06,4.243,4.243,0,0,0-1.607,3.327,4.338,4.338,0,0,0,7.694,2.689.4.4,0,0,0-.06-.566.411.411,0,0,0-.573.06,3.521,3.521,0,0,1-6.245-2.183,3.446,3.446,0,0,1,1.305-2.7Z" transform="translate(-245.147 -246.048)" fill="#919191"/>
    <path id="Path_111" data-name="Path 111" d="M264.084,253.222a1.281,1.281,0,0,0,1.2.832h1.307a1.264,1.264,0,1,0,0-2.528h-.411l-1.436-3.9a1.282,1.282,0,0,0-1.2-.832h-3.948v-2.208h2.642a1.264,1.264,0,1,0,0-2.528h-2.642v-.459a1.279,1.279,0,0,0-2.557,0v6.459a1.273,1.273,0,0,0,1.279,1.264h4.332Zm-6.232-5.168v-6.459a.464.464,0,0,1,.927,0v.861a.4.4,0,0,0,.407.4h3.049a.458.458,0,1,1,0,.917h-3.049a.405.405,0,0,0-.407.4v3.014a.4.4,0,0,0,.407.4h4.356a.465.465,0,0,1,.436.3l1.534,4.17a.408.408,0,0,0,.383.265h.7a.458.458,0,1,1,0,.916h-1.307a.464.464,0,0,1-.436-.3l-1.534-4.169a.407.407,0,0,0-.383-.265h-4.617A.461.461,0,0,1,257.852,248.054Z" transform="translate(-252.245 -236.025)" fill="#919191"/>
    <path id="Path_112" data-name="Path 112" d="M257.3,229.39a1.695,1.695,0,1,0-1.714-1.694A1.707,1.707,0,0,0,257.3,229.39Zm0-2.584a.889.889,0,1,1-.9.889A.895.895,0,0,1,257.3,226.807Z" transform="translate(-251.23 -226.001)" fill="#919191"/>
  </g>
</svg>
