<svg xmlns="http://www.w3.org/2000/svg" width="52" height="45.999" viewBox="0 0 52 45.999">
  <g id="Breakfast_icon" data-name="Breakfast icon" transform="translate(0 -2.695)">
    <path id="Path_153" data-name="Path 153" d="M47.567,37.339A5.226,5.226,0,0,0,52,32.2V27a.873.873,0,0,0-.879-.868H26.516a.873.873,0,0,0-.878.868v7.812H23.9V13.978a.859.859,0,0,0-.071-.342L21.261,7.728V3.563a.873.873,0,0,0-.878-.868H4.575a.873.873,0,0,0-.879.868V7.728L1.133,13.639a.841.841,0,0,0-.071.339V43.793a2.722,2.722,0,0,0-.469,3.852A2.786,2.786,0,0,0,2.78,48.694H45.852a.881.881,0,0,0,.791-.479l1.508-2.991H52V43.487H44.064A8.652,8.652,0,0,0,47.567,37.339Zm.042-9.475h2.635V32.2a3.481,3.481,0,0,1-2.635,3.348ZM21.686,13.11H19.08l1.3-3Zm.454,1.735V34.808H18.627V14.846ZM5.453,4.43H19.505v2.6H5.453Zm-.3,4.339h13.9l-1.883,4.34H3.271ZM2.818,14.846H16.87V34.808H15a2.792,2.792,0,0,0-2.1.94,2.722,2.722,0,0,0-.511.882L8.125,37.835A2.77,2.77,0,0,0,6.134,40.2L2.818,42.541ZM2.78,46.96a1.022,1.022,0,0,1-.972-.7,1,1,0,0,1,.376-1.144L6.39,42.15l.973,4.81Zm6.374,0L7.883,40.676A1.017,1.017,0,0,1,8.606,39.5l3.714-1.049,1.164,8.5Zm6.1,0-1.27-9.269a1.014,1.014,0,0,1,.88-1.138A.89.89,0,0,1,15,36.544H25.639a8.641,8.641,0,0,0,3.545,6.943H22.14v1.736h3.848l.878,1.736Zm30.93-1.736L45.31,46.96H28.83l-.879-1.736Zm-7.377-1.736H34.435a7.007,7.007,0,0,1-7.04-6.958V27.864H45.852v8.665A7.007,7.007,0,0,1,38.811,43.487Z" fill="#2e482b"/>
    <path id="Path_154" data-name="Path 154" d="M35.3,40.015a4.372,4.372,0,0,1-4.392-4.339v-.868H29.15v.868A6.121,6.121,0,0,0,35.3,41.752h.878V40.015Z" fill="#2e482b"/>
    <rect id="Rectangle_23" data-name="Rectangle 23" width="1.757" height="1.735" transform="translate(29.15 31.336)" fill="#2e482b"/>
    <path id="Path_155" data-name="Path 155" d="M46.291,15.713H35.752a1.3,1.3,0,1,1,0-2.6h3.953A4.371,4.371,0,0,0,44.1,8.77H42.34a2.62,2.62,0,0,1-2.635,2.6H35.752a3.038,3.038,0,1,0,0,6.076H46.291a1.3,1.3,0,1,1,0,2.6H33.557a4.369,4.369,0,0,0-4.391,4.339h1.756a2.619,2.619,0,0,1,2.635-2.6H46.291a3.038,3.038,0,1,0,0-6.076Z" fill="#2e482b"/>
    <path id="Path_156" data-name="Path 156" d="M9.844,19.185a3.472,3.472,0,1,0,3.513,3.472A3.493,3.493,0,0,0,9.844,19.185Zm0,5.208A1.736,1.736,0,1,1,11.6,22.657,1.747,1.747,0,0,1,9.844,24.393Z" fill="#2e482b"/>
    <rect id="Rectangle_24" data-name="Rectangle 24" width="7.026" height="1.736" transform="translate(6.331 27.864)" fill="#2e482b"/>
    <rect id="Rectangle_25" data-name="Rectangle 25" width="7.026" height="1.735" transform="translate(6.331 31.336)" fill="#2e482b"/>
  </g>
</svg>
