<svg xmlns="http://www.w3.org/2000/svg" width="17.268" height="17.5" viewBox="0 0 17.268 17.5">
  <g id="Cart" transform="translate(-1278.67 -31.67)">
    <path id="Path_373" data-name="Path 373" d="M-6.67-4.67v-10H-8.33v-1.66h2.5a.807.807,0,0,1,.585.24A.794.794,0,0,1-5-15.5v10H5.37l1.66-6.67H-3.33v-1.66H8.1a.826.826,0,0,1,.365.085.846.846,0,0,1,.3.235.8.8,0,0,1,.16.34.77.77,0,0,1-.01.37L6.82-4.46a.772.772,0,0,1-.29.45.808.808,0,0,1-.51.18H-5.83a.81.81,0,0,1-.595-.245A.81.81,0,0,1-6.67-4.67ZM-5,1.17A1.626,1.626,0,0,1-5.835.945a1.673,1.673,0,0,1-.61-.61A1.626,1.626,0,0,1-6.67-.5a1.626,1.626,0,0,1,.225-.835,1.673,1.673,0,0,1,.61-.61A1.626,1.626,0,0,1-5-2.17a1.626,1.626,0,0,1,.835.225,1.673,1.673,0,0,1,.61.61A1.626,1.626,0,0,1-3.33-.5a1.626,1.626,0,0,1-.225.835,1.673,1.673,0,0,1-.61.61A1.626,1.626,0,0,1-5,1.17Zm10,0A1.626,1.626,0,0,1,4.165.945a1.673,1.673,0,0,1-.61-.61A1.626,1.626,0,0,1,3.33-.5a1.626,1.626,0,0,1,.225-.835,1.673,1.673,0,0,1,.61-.61A1.626,1.626,0,0,1,5-2.17a1.626,1.626,0,0,1,.835.225,1.673,1.673,0,0,1,.61.61A1.626,1.626,0,0,1,6.67-.5a1.626,1.626,0,0,1-.225.835,1.673,1.673,0,0,1-.61.61A1.626,1.626,0,0,1,5,1.17Z" transform="translate(1287 48)" fill="#333"/>
  </g>
</svg>
