<svg xmlns="http://www.w3.org/2000/svg" width="13.328" height="13.328" viewBox="0 0 13.328 13.328">
  <path id="Path_378" data-name="Path 378" d="M8,.264a6.6,6.6,0,0,1-2.592-.52A6.58,6.58,0,0,1,3.284-1.684,6.58,6.58,0,0,1,1.856-3.808,6.6,6.6,0,0,1,1.336-6.4a6.6,6.6,0,0,1,.52-2.592,6.58,6.58,0,0,1,1.428-2.124,6.58,6.58,0,0,1,2.124-1.428A6.6,6.6,0,0,1,8-13.064a6.6,6.6,0,0,1,2.592.52,6.58,6.58,0,0,1,2.124,1.428,6.58,6.58,0,0,1,1.428,2.124,6.6,6.6,0,0,1,.52,2.592,6.6,6.6,0,0,1-.52,2.592,6.58,6.58,0,0,1-1.428,2.124A6.58,6.58,0,0,1,10.592-.256,6.6,6.6,0,0,1,8,.264ZM8-1.064a5.181,5.181,0,0,0,2.072-.424,5.224,5.224,0,0,0,1.7-1.14,5.224,5.224,0,0,0,1.14-1.7A5.181,5.181,0,0,0,13.336-6.4a5.181,5.181,0,0,0-.424-2.072,5.224,5.224,0,0,0-1.14-1.7,5.224,5.224,0,0,0-1.7-1.14A5.181,5.181,0,0,0,8-11.736a5.181,5.181,0,0,0-2.072.424,5.224,5.224,0,0,0-1.7,1.14,5.224,5.224,0,0,0-1.14,1.7A5.181,5.181,0,0,0,2.664-6.4a5.181,5.181,0,0,0,.424,2.072,5.224,5.224,0,0,0,1.14,1.7,5.224,5.224,0,0,0,1.7,1.14A5.181,5.181,0,0,0,8-1.064ZM8.664-6.4h2.672v1.336h-4V-9.736H8.664Z" transform="translate(-1.336 13.064)" fill="#232323"/>
</svg>
