<svg xmlns="http://www.w3.org/2000/svg" width="47" height="52" viewBox="0 0 47 52">
  <g id="Drinks_icon" data-name="Drinks icon" transform="translate(-207.885 -229.999)">
    <path id="Path_185" data-name="Path 185" d="M229.405,235.766l-9.9-1.92a1.028,1.028,0,0,0-1.085.489,49.873,49.873,0,0,0-5.165,14.059,24.626,24.626,0,0,0-.47,5.249,18.544,18.544,0,0,0,.475,3.939q.13.547.3,1.085c.844,2.682,2.3,4.514,4.143,5.271L215.56,275.4l-4.607-.893a2.541,2.541,0,0,0-2.814,1.516,3.237,3.237,0,0,0-.159.574,4.572,4.572,0,0,0-.09.56,2.489,2.489,0,0,0,.506,1.678,2.52,2.52,0,0,0,1.522.943l11.236,2.18a2.568,2.568,0,0,0,2.566-1.056,2.381,2.381,0,0,0,.328-.7,4.363,4.363,0,0,0,.172-.949,2.5,2.5,0,0,0-2.032-2.569l-4.615-.9,2.139-11.462c1.886-.017,3.808-1.054,5.528-3,.141-.158.275-.321.407-.487a19.445,19.445,0,0,0,3.1-5.751,25.447,25.447,0,0,0,.95-3.5,49.733,49.733,0,0,0,.53-14.957A1.024,1.024,0,0,0,229.405,235.766Zm-7.313,43.113a.538.538,0,0,1,.064.388,1.736,1.736,0,0,1-.087.377.466.466,0,0,1-.522.308l-11.236-2.18a.465.465,0,0,1-.319-.234.712.712,0,0,1-.008-.5.676.676,0,0,1,.175-.417.468.468,0,0,1,.4-.112l11.237,2.179A.46.46,0,0,1,222.092,278.879Zm-2.244-42.889,8.428,1.635a48.979,48.979,0,0,1-.594,13.567q-.142.72-.324,1.415H214.835a23.272,23.272,0,0,1,.432-3.823A49.2,49.2,0,0,1,219.848,235.99Zm6,20.717a15.168,15.168,0,0,1-1.9,2.985,7.019,7.019,0,0,1-3.383,2.47,3.3,3.3,0,0,1-1.721.013,4.324,4.324,0,0,1-2.438-2.082,11.423,11.423,0,0,1-1.376-4.177c-.063-.421-.11-.845-.142-1.269h11.84A19.947,19.947,0,0,1,225.849,256.707Z" fill="#2e482b"/>
    <path id="Path_186" data-name="Path 186" d="M225.882,247.7c.032,0,.063,0,.1,0a1.024,1.024,0,0,0,1.02-.928,49.206,49.206,0,0,0,.159-6.442,1.025,1.025,0,0,0-2.049.081,47.249,47.249,0,0,1-.153,6.176A1.021,1.021,0,0,0,225.882,247.7Z" fill="#2e482b"/>
    <path id="Path_187" data-name="Path 187" d="M254.839,276.842a3.862,3.862,0,0,0-.335-1.09,2.425,2.425,0,0,0-.638-.75,2.536,2.536,0,0,0-2.048-.5l-4.612.894-2.251-11.463c3.955-1.634,5.89-8.145,4.439-15.54a49.908,49.908,0,0,0-5.165-14.059,1.029,1.029,0,0,0-1.085-.489l-9.9,1.92a1.025,1.025,0,0,0-.82.859,49.809,49.809,0,0,0,.53,14.957c1.452,7.395,5.709,12.706,9.991,12.742l2.251,11.464-4.612.895a2.549,2.549,0,0,0-1.97,1.895,3.185,3.185,0,0,0,.135,1.7,2.5,2.5,0,0,0,.993,1.3,2.552,2.552,0,0,0,1.877.375l11.236-2.18A2.522,2.522,0,0,0,254.839,276.842Zm-20.467-39.217,8.428-1.635a49.155,49.155,0,0,1,4.582,12.794c.052.266.1.531.142.8H234.684A49.879,49.879,0,0,1,234.372,237.625Zm18.382,39.953a.45.45,0,0,1-.295.194l-11.236,2.18a.472.472,0,0,1-.4-.112.689.689,0,0,1-.175-.418.775.775,0,0,1-.007-.473.464.464,0,0,1,.334-.265l11.236-2.18a.473.473,0,0,1,.523.308A.908.908,0,0,1,252.755,277.578Zm-9.966-15.3a4.644,4.644,0,0,1-2.418-.971,9.6,9.6,0,0,1-1.85-1.835,14.574,14.574,0,0,1-.9-1.3,18.686,18.686,0,0,1-1.43-2.845,22.587,22.587,0,0,1-1.135-3.714h12.7a18.429,18.429,0,0,1-.384,5.569,12.079,12.079,0,0,1-.469,1.525c-.72,1.871-1.8,3.085-3.064,3.452A3.139,3.139,0,0,1,242.789,262.28Z" fill="#2e482b"/>
    <path id="Path_188" data-name="Path 188" d="M232.2,231.019a1.026,1.026,0,0,0-2.051,0v3.313a1.026,1.026,0,0,0,2.051,0Z" fill="#2e482b"/>
    <path id="Path_189" data-name="Path 189" d="M227.011,233.857a1.024,1.024,0,0,0,1.754-1.058l-1.265-2.07a1.03,1.03,0,0,0-1.409-.341,1.016,1.016,0,0,0-.343,1.4Z" fill="#2e482b"/>
    <path id="Path_190" data-name="Path 190" d="M234.126,234.2a1.03,1.03,0,0,0,1.409-.343l1.264-2.068a1.017,1.017,0,0,0-.344-1.4,1.029,1.029,0,0,0-1.409.341l-1.264,2.07A1.015,1.015,0,0,0,234.126,234.2Z" fill="#2e482b"/>
    <path id="Path_191" data-name="Path 191" d="M242.085,242.7q.587,1.594,1.052,3.23c.123.431.189.884.608,1.134a1.04,1.04,0,0,0,1.18-.086,1.026,1.026,0,0,0,.339-1.051c-.135-.529-.295-1.053-.456-1.575q-.25-.81-.531-1.611c-.092-.264-.175-.536-.286-.794a1.021,1.021,0,0,0-.359-.436,1.042,1.042,0,0,0-1.2.027A1.026,1.026,0,0,0,242.085,242.7Z" fill="#2e482b"/>
    <path id="Path_192" data-name="Path 192" d="M226.429,250.722a1.03,1.03,0,1,1-1.03-1.024A1.028,1.028,0,0,1,226.429,250.722Z" fill="#2e482b"/>
    <path id="Path_193" data-name="Path 193" d="M242.534,238.587a1.03,1.03,0,1,1-1.03-1.023A1.027,1.027,0,0,1,242.534,238.587Z" fill="#2e482b"/>
  </g>
</svg>
