<svg xmlns="http://www.w3.org/2000/svg" width="24.375" height="24.375" viewBox="0 0 24.375 24.375">
  <path id="Path_386" data-name="Path 386" d="M11.953-15a1.036,1.036,0,0,1-1.172-1.172,1.036,1.036,0,0,1,1.172-1.172,1.036,1.036,0,0,1,1.172,1.172A1.036,1.036,0,0,1,11.953-15Zm1.172,8.906h.938v.469h-3.75v-.469h.938v-7.031h-.937v-.469h2.813ZM3.574-19.863a11.74,11.74,0,0,1,8.613-3.574A11.74,11.74,0,0,1,20.8-19.863a11.74,11.74,0,0,1,3.574,8.613A11.74,11.74,0,0,1,20.8-2.637,11.74,11.74,0,0,1,12.188.938,11.74,11.74,0,0,1,3.574-2.637,11.74,11.74,0,0,1,0-11.25,11.74,11.74,0,0,1,3.574-19.863Zm.7,16.523a10.781,10.781,0,0,0,7.91,3.281A10.781,10.781,0,0,0,20.1-3.34a10.781,10.781,0,0,0,3.281-7.91A10.781,10.781,0,0,0,20.1-19.16a10.781,10.781,0,0,0-7.91-3.281,10.781,10.781,0,0,0-7.91,3.281A10.781,10.781,0,0,0,1-11.25,10.781,10.781,0,0,0,4.277-3.34Z" transform="translate(0 23.438)" fill="#232323"/>
</svg>
