<svg xmlns="http://www.w3.org/2000/svg" width="28.073" height="28" viewBox="0 0 28.073 28">
  <g id="Ingredients_icon" data-name="Ingredients icon" transform="translate(-98 -2142.973)">
    <path id="Path_63" data-name="Path 63" d="M7.074,10.694a2.287,2.287,0,0,0,1.367,2.089,8.883,8.883,0,0,0,7.155,0,2.278,2.278,0,0,0,1.168-3.016,2.308,2.308,0,0,0-3.038-1.16h0a4.241,4.241,0,0,1-3.416,0,2.309,2.309,0,0,0-3.039,1.16A2.264,2.264,0,0,0,7.074,10.694ZM8.66,9.6a1.308,1.308,0,0,1,.712-.214,1.329,1.329,0,0,1,.537.115,5.24,5.24,0,0,0,4.219,0,1.309,1.309,0,0,1,1.846,1.191,1.3,1.3,0,0,1-.779,1.192,7.885,7.885,0,0,1-6.352,0,1.3,1.3,0,0,1-.78-1.191A1.28,1.28,0,0,1,8.66,9.6ZM8.673,23A8.871,8.871,0,0,0,7.7,15.115l-.259-.39a.5.5,0,0,0-.559-.2l-.449.139a8.961,8.961,0,0,0-5.775,5.5,4.213,4.213,0,0,0,2.556,5.4,4.262,4.262,0,0,0,5.443-2.539c0-.01.007-.02.011-.03ZM5.635,24.679a3.268,3.268,0,0,1-4.084-2.134A3.214,3.214,0,0,1,1.593,20.5,7.969,7.969,0,0,1,6.732,15.6l.094-.03.055.082a7.889,7.889,0,0,1,.861,7.016A3.267,3.267,0,0,1,5.635,24.679ZM3.22,18.6l.932.33L3.048,22l-.932-.33Zm2.559-1.569.931.329L4.345,23.946l-.932-.329ZM7.692,20.18l-1.1,3.075-.932-.33,1.1-3.075Zm4.252-12.4a2.106,2.106,0,0,0,2.112-2.1V3.619a.489.489,0,0,0-.1-.295L12.571,1.49a.5.5,0,0,0-.4-.2A2.337,2.337,0,0,0,9.832,3.619V5.684a2.107,2.107,0,0,0,2.113,2.1ZM10.821,3.619a1.349,1.349,0,0,1,1.121-1.325l1.125,1.488v1.9a1.123,1.123,0,0,1-2.246,0Zm17.215,12a.5.5,0,0,0-.47-.36l-.47-.006a9.016,9.016,0,0,0-7.209,3.456,4.2,4.2,0,0,0,.769,5.921,4.276,4.276,0,0,0,5.965-.764,8.873,8.873,0,0,0,1.539-7.8Zm-2.2,7.647a3.279,3.279,0,0,1-4.576.586,3.223,3.223,0,0,1-.59-4.543,8.016,8.016,0,0,1,5.3-3.011,7.861,7.861,0,0,1,1.114-.064h.1l.027.1A7.9,7.9,0,0,1,25.839,23.266Zm-4.254-2.08-.783-.6L22.811,18l.783.6Zm4.149-3.89.782.6-4.3,5.537-.782-.6Zm.052,2.984.783.6-2.009,2.584-.784-.6Zm-6.181-9.007.175.433a.5.5,0,0,0,.508.306l.467-.046a8.9,8.9,0,0,0,1.236-.209,8.992,8.992,0,0,0,5.54-4.021,4.2,4.2,0,0,0-1.428-5.8,4.27,4.27,0,0,0-5.841,1.417A8.868,8.868,0,0,0,19.605,11.273Zm3.972-8.952a3.238,3.238,0,0,1,3.109,4.9,8.008,8.008,0,0,1-6.028,3.763l-.1.009-.037-.091a7.889,7.889,0,0,1,.584-7.044A3.278,3.278,0,0,1,23.577,2.321Zm1.99,3.14.846.51L24.705,8.76l-.845-.509ZM21.881,9.785l-.845-.51L24.692,3.3l.845.51Zm-.387-2.961-.845-.51,1.706-2.79.846.51ZM1.706,8.22A2.313,2.313,0,0,0,4.935,7.8a2.273,2.273,0,0,0,.414-.856A4.185,4.185,0,0,1,7.434,4.264h0a2.276,2.276,0,0,0,.915-3.1A2.31,2.31,0,0,0,5.244.244,8.769,8.769,0,0,0,.875,5.87,2.278,2.278,0,0,0,1.706,8.22ZM1.836,6.1A7.785,7.785,0,0,1,5.715,1.108a1.322,1.322,0,0,1,1.427.114A1.3,1.3,0,0,1,7.379,3.05a1.311,1.311,0,0,1-.415.351A5.168,5.168,0,0,0,4.388,6.717a1.317,1.317,0,0,1-2.078.724A1.3,1.3,0,0,1,1.836,6.1ZM18.183,23.216a2.308,2.308,0,0,0-2.189-.172,4.237,4.237,0,0,1-3.416,0A2.308,2.308,0,0,0,9.54,24.2a2.278,2.278,0,0,0,1.169,3.016h0a8.873,8.873,0,0,0,7.155,0,2.278,2.278,0,0,0,.319-4Zm-.721,3.107a7.881,7.881,0,0,1-6.352,0,1.3,1.3,0,0,1,.529-2.5,1.338,1.338,0,0,1,.538.115,5.229,5.229,0,0,0,4.218,0,1.317,1.317,0,0,1,1.734.662,1.3,1.3,0,0,1-.667,1.72Zm-5.087-6.465a2.121,2.121,0,0,0,2.954.43,2.086,2.086,0,0,0,.446-2.917l-1.233-1.663a.5.5,0,0,0-.256-.179l-2.212-.661a.5.5,0,0,0-.436.075,2.315,2.315,0,0,0-.5,3.252h0Zm-.325-3.972,1.794.537,1.136,1.53a1.112,1.112,0,0,1-.238,1.56,1.13,1.13,0,0,1-1.571-.237h0l-1.233-1.662a1.338,1.338,0,0,1,.112-1.728ZM16.417,4.759a1.48,1.48,0,0,0,1.048-.43l1.05-1.041a1.466,1.466,0,0,0,0-2.083,1.49,1.49,0,0,0-2.1,0l-1.05,1.041a1.465,1.465,0,0,0,0,2.082A1.489,1.489,0,0,0,16.417,4.759ZM16.068,2.94,17.117,1.9a.5.5,0,0,1,.7.008.487.487,0,0,1,0,.686L16.768,3.634a.5.5,0,0,1-.7,0,.488.488,0,0,1,0-.694Zm2.945,13.548,1.272-.758a1.466,1.466,0,0,0,.509-2.02,1.49,1.49,0,0,0-2.036-.505l-1.271.758a1.466,1.466,0,0,0-.509,2.02A1.49,1.49,0,0,0,19.013,16.488Zm-.509-.842a.5.5,0,0,1-.679-.169A.489.489,0,0,1,18,14.8l1.272-.757a.5.5,0,0,1,.679.169.489.489,0,0,1-.17.674ZM3.922,13.066V11.593a1.484,1.484,0,0,0-2.967,0v1.473a1.484,1.484,0,0,0,2.967,0Zm-.989,0a.495.495,0,0,1-.989,0V11.593a.495.495,0,0,1,.989,0Z" transform="translate(97.592 2143)" fill="#2e482b"/>
  </g>
</svg>
