<svg xmlns="http://www.w3.org/2000/svg" width="24" height="24.491" viewBox="0 0 24 24.491">
  <g id="Location" transform="translate(-920.189 -618)">
    <path id="Path_371" data-name="Path 371" d="M10.567-12.444a8.564,8.564,0,0,0-4.49,1.225A8.563,8.563,0,0,0,2.893-7.873,10,10,0,0,0,1.75-3.056q0,2.694,3.266,7.592a67.452,67.452,0,0,0,4.735,6.2q.163.327.735.327a1.214,1.214,0,0,0,.9-.327q2.612-3.1,4.735-6.2,3.266-4.9,3.266-7.592a10,10,0,0,0-1.143-4.817,8.563,8.563,0,0,0-3.184-3.347A8.564,8.564,0,0,0,10.567-12.444Zm0,21.226Q7.791,5.353,5.832,2.414,3.709-1.178,3.709-3.138a7.8,7.8,0,0,1,.9-3.674A6.9,6.9,0,0,1,7.056-9.505a6.292,6.292,0,0,1,3.429-.98,6.705,6.705,0,0,1,3.51.98,6.707,6.707,0,0,1,2.531,2.694,7.8,7.8,0,0,1,.9,3.674q0,1.959-2.123,5.551Q13.343,5.353,10.567,8.782Zm0-16.328A3.779,3.779,0,0,0,7.791-6.4,3.779,3.779,0,0,0,6.648-3.628,3.779,3.779,0,0,0,7.791-.852,3.779,3.779,0,0,0,10.567.291,3.779,3.779,0,0,0,13.343-.852a3.779,3.779,0,0,0,1.143-2.776A3.779,3.779,0,0,0,13.343-6.4,3.779,3.779,0,0,0,10.567-7.546Zm0,5.878A1.889,1.889,0,0,1,9.179-2.24a1.889,1.889,0,0,1-.571-1.388,1.89,1.89,0,0,1,.571-1.388,1.889,1.889,0,0,1,1.388-.571,1.89,1.89,0,0,1,1.388.571,1.89,1.89,0,0,1,.571,1.388,1.89,1.89,0,0,1-.571,1.388A1.89,1.89,0,0,1,10.567-1.668Z" transform="translate(922 630.444)" fill="#232323"/>
    <line id="Line_7" data-name="Line 7" x2="22" transform="translate(921.189 641.491)" fill="none" stroke="#232323" stroke-linecap="round" stroke-linejoin="round" stroke-width="2"/>
  </g>
</svg>
