<svg xmlns="http://www.w3.org/2000/svg" width="13.5" height="18" viewBox="0 0 13.5 18">
  <path id="Path_379" data-name="Path 379" d="M9-16a6.556,6.556,0,0,0-3.437.938A6.556,6.556,0,0,0,3.125-12.5,7.654,7.654,0,0,0,2.25-8.812Q2.25-6.75,4.75-3A51.64,51.64,0,0,0,8.375,1.75Q8.5,2,8.938,2a.929.929,0,0,0,.688-.25q2-2.375,3.625-4.75,2.5-3.75,2.5-5.812a7.654,7.654,0,0,0-.875-3.688,6.556,6.556,0,0,0-2.437-2.562A6.556,6.556,0,0,0,9-16ZM9,.25Q6.875-2.375,5.375-4.625A9.449,9.449,0,0,1,3.75-8.875a5.973,5.973,0,0,1,.688-2.812A5.284,5.284,0,0,1,6.313-13.75a4.817,4.817,0,0,1,2.625-.75,5.134,5.134,0,0,1,2.688.75,5.135,5.135,0,0,1,1.938,2.063,5.973,5.973,0,0,1,.688,2.813,9.449,9.449,0,0,1-1.625,4.25Q11.125-2.375,9,.25Zm0-12.5a2.893,2.893,0,0,0-2.125.875A2.893,2.893,0,0,0,6-9.25a2.893,2.893,0,0,0,.875,2.125A2.893,2.893,0,0,0,9-6.25a2.893,2.893,0,0,0,2.125-.875A2.893,2.893,0,0,0,12-9.25a2.893,2.893,0,0,0-.875-2.125A2.893,2.893,0,0,0,9-12.25Zm0,4.5a1.447,1.447,0,0,1-1.062-.437A1.447,1.447,0,0,1,7.5-9.25a1.447,1.447,0,0,1,.438-1.062A1.447,1.447,0,0,1,9-10.75a1.447,1.447,0,0,1,1.063.438A1.447,1.447,0,0,1,10.5-9.25a1.447,1.447,0,0,1-.437,1.063A1.447,1.447,0,0,1,9-7.75Z" transform="translate(-2.25 16)" fill="#cb007b"/>
</svg>
