<svg xmlns="http://www.w3.org/2000/svg" width="18.029" height="14.724" viewBox="0 0 18.029 14.724">
  <g id="Non-veg" transform="translate(0 0)">
    <g id="Non-veg-2" data-name="Non-veg" transform="translate(0)">
      <path id="Path_117" data-name="Path 117" d="M242.509,192.118a1.414,1.414,0,0,0-1.2.2.42.42,0,0,1-.34.082l-.012,0-2.859-.7c-.465-1.63-2.181-3.176-3.192-3.972a15.377,15.377,0,0,0-4.7-2.6h0c-1.98-.562-3.7,2.6-4.28,4.585-.773,2.667-.45,5.089.706,5.9h-.773a.35.35,0,0,0-.352.348,2.408,2.408,0,0,0,.722,1.723,2.46,2.46,0,0,0,1.519.7l.417.825a1.052,1.052,0,0,0,.944.577h10.815a1.052,1.052,0,0,0,.944-.577l.417-.825a2.45,2.45,0,0,0,2.241-2.426.35.35,0,0,0-.352-.348h-.3a2.7,2.7,0,0,1,.6-1.77A1.389,1.389,0,0,0,242.509,192.118Zm-.8.771a.708.708,0,0,1,.6-.1.693.693,0,0,1,.181,1.258.346.346,0,0,0-.129.446.685.685,0,0,1,.043.495.706.706,0,0,1-.871.477.7.7,0,0,1-.456-.4,1.086,1.086,0,0,0-.7-.649l-.013,0-2.534-.62a2.318,2.318,0,0,0,.376-1.34l2.565.627A1.1,1.1,0,0,0,241.713,192.889Zm-4.268.085a2.326,2.326,0,0,1-1.05,1.239,1.551,1.551,0,0,0-1.389-.692,1.532,1.532,0,0,0-1.408.721,1.531,1.531,0,0,0-1.407-.721c-1.461,0-1.7,1.252-1.748,1.988a16.35,16.35,0,0,1-1.645-.042,8.207,8.207,0,0,0,2.557-4.219,8.036,8.036,0,0,0,.073-4.889,17.232,17.232,0,0,1,3.036,1.917C235.789,189.319,237.908,191.378,237.445,192.974Zm-1.53,1.848a2.79,2.79,0,0,1,.137.787h-2.093c.065-1.145.467-1.392,1.047-1.392A.842.842,0,0,1,235.916,194.822Zm-2.679.787h-2.093c.064-1.148.467-1.392,1.047-1.392S233.172,194.465,233.236,195.609Zm-6.638-5.7c.523-1.806,2.051-4.493,3.408-4.108h0c1.434.407,1.131,3.675.671,5.259-.524,1.809-2.036,4.491-3.388,4.108C225.851,194.756,226.137,191.494,226.6,189.9Zm14.461,7.793h-2.675a.348.348,0,1,0,0,.7h2.105l-.255.5a.351.351,0,0,1-.315.193H229.106a.35.35,0,0,1-.315-.193l-.255-.5h7.033a.348.348,0,1,0,0-.7h-7.6a1.759,1.759,0,0,1-1.244-.509,1.725,1.725,0,0,1-.48-.883h16.542A1.759,1.759,0,0,1,241.059,197.7Zm-4.3-2.088a4.12,4.12,0,0,0-.1-.74,4.288,4.288,0,0,0,.664-.488l2.868.7a.414.414,0,0,1,.239.246,1.4,1.4,0,0,0,.159.281Z" transform="translate(-225.5 -185.062)" fill="#919191"/>
      <path id="Path_118" data-name="Path 118" d="M232.47,200.01c.847.24,1.4-1.227,1.641-2.065.406-1.4.257-2.419-.379-2.6-.188-.053-.563-.062-.965.481a4.97,4.97,0,0,0-.686,1.543C231.676,198.768,231.832,199.829,232.47,200.01Zm.288-2.449c.318-1.1.658-1.459.78-1.531a2.589,2.589,0,0,1-.1,1.723,3.074,3.074,0,0,1-.771,1.568A2.679,2.679,0,0,1,232.758,197.561Z" transform="translate(-229.947 -192.239)" fill="#919191"/>
      <path id="Path_119" data-name="Path 119" d="M263.226,227.46a.352.352,0,1,1-.352-.348A.35.35,0,0,1,263.226,227.46Z" transform="translate(-251.397 -214.476)" fill="#919191"/>
    </g>
  </g>
</svg>
