<svg xmlns="http://www.w3.org/2000/svg" width="22.75" height="22.75" viewBox="0 0 22.75 22.75">
  <path id="Path_380" data-name="Path 380" d="M16.5-16.352q.3.66.152.762a.343.343,0,0,1-.33.051.457.457,0,0,1-.33-.3.958.958,0,0,1-.051-.3l-.051-.152h-.152q-.3.1-.3-.2a.55.55,0,0,1,.254-.2.146.146,0,0,0-.051-.1q-.051-.3.152-.254A1.205,1.205,0,0,1,16.5-16.352ZM3.326-17.8a10.964,10.964,0,0,1,8.049-3.326A10.964,10.964,0,0,1,19.424-17.8,10.964,10.964,0,0,1,22.75-9.75,10.964,10.964,0,0,1,19.424-1.7a10.964,10.964,0,0,1-8.049,3.326A10.964,10.964,0,0,1,3.326-1.7,10.964,10.964,0,0,1,0-9.75,10.964,10.964,0,0,1,3.326-17.8ZM7.16-.965l.406.2q.3.1.508.152A9.853,9.853,0,0,0,10.258-.1a9.606,9.606,0,0,0,4.215-.406,8.81,8.81,0,0,0,2.184-1.016,1.213,1.213,0,0,0,.3-.609,5.75,5.75,0,0,1,.2-.609,3.1,3.1,0,0,0,.178-1.143,1.774,1.774,0,0,1,.432-1.244,1.318,1.318,0,0,0,.3-.559,1.392,1.392,0,0,0-.025-.584,2.635,2.635,0,0,1-.076-.584,3.1,3.1,0,0,1,.152-.66,1.383,1.383,0,0,0,.051-.812q0-.1-.2-.025t-.254-.025a.481.481,0,0,0-.381-.178,2.518,2.518,0,0,0-.609.025,3.7,3.7,0,0,1-.432.051,3.805,3.805,0,0,1-1.676-1.168q-.152-.152.051-1.32a4.145,4.145,0,0,0,.1-.711,1.914,1.914,0,0,1,.229-.838.954.954,0,0,1,.635-.381.552.552,0,0,0,.279-.279.682.682,0,0,1,.229-.279,3.926,3.926,0,0,1,.381-.1,3.926,3.926,0,0,0,.381-.1,1.937,1.937,0,0,1,.686.025,4.085,4.085,0,0,0,.635.076A2.35,2.35,0,0,1,19.348-13a.582.582,0,0,0,.33.178,2.9,2.9,0,0,0,.406.025,1.22,1.22,0,0,1,.381.051q.2-.051-.1-.406a.722.722,0,0,0-.406-.1,2.111,2.111,0,0,1-1.016-.736,4.491,4.491,0,0,0-.812-.787q-.355-.2-.559,0l.051.609a2.064,2.064,0,0,1-.66.254q-.457.1-.863-.508-.254-.457.1-.609h.152a.992.992,0,0,1,.2-.076q.1-.025.254-.076a1.97,1.97,0,0,0,.254-.1,1.334,1.334,0,0,0,.2-.127.5.5,0,0,0,.152-.178.216.216,0,0,0,0-.2.871.871,0,0,1-.051-.355q-.051-.3-.2-.355a.929.929,0,0,1-.381-.2.929.929,0,0,0-.381-.2q-.254-.051-.254-.711,0-.355.254-.355h.2A9.683,9.683,0,0,0,13.711-19.2q-.2.609-.406.609a3.361,3.361,0,0,0-.457.152,2.28,2.28,0,0,0-.254.33,2.28,2.28,0,0,1-.254.33,1.18,1.18,0,0,1-.229.178.192.192,0,0,1-.254-.051,1.722,1.722,0,0,1-.279-.432,1.315,1.315,0,0,1,.025-.762,1.454,1.454,0,0,0,.076-.66h-.457a.6.6,0,0,1-.406.965.893.893,0,0,1-.432-.127.582.582,0,0,0-.432-.076.771.771,0,0,1-.279-.076.337.337,0,0,0-.279-.025q-.66.3-.711.609-.1.457.152.533t.559-.229q.711-.711,1.27-.3a.863.863,0,0,1,.254.711,2.187,2.187,0,0,1-.025.355,1.012,1.012,0,0,1-.127.33.249.249,0,0,1-.3.127.442.442,0,0,1-.178-.076q-.127-.076-.178-.1a.318.318,0,0,0-.2.025A7.36,7.36,0,0,1,8.43-16.4a3.527,3.527,0,0,0-.736.229q-.432.178-.533.229-.559.2-.609.609,0,.711-.152.762-.1.051-.229-.229a2.565,2.565,0,0,0-.355-.559.545.545,0,0,0-.533-.229,1.642,1.642,0,0,0-.965.482.882.882,0,0,0-.3.939q.051.1.381.178a.989.989,0,0,1,.406.152q.076.076-.279.381a.41.41,0,0,0-.025.254q.025.152.076.432a3.172,3.172,0,0,1,.051.33.751.751,0,0,0,.406.559.534.534,0,0,0,.66-.051.647.647,0,0,1,.711-.1,15.022,15.022,0,0,1,2.285,1.371,3.5,3.5,0,0,1,.381.711,1.573,1.573,0,0,0,.482.711,3.259,3.259,0,0,0,.584.254,1.72,1.72,0,0,1,.736.457.577.577,0,0,1,.025.635,1.707,1.707,0,0,1-.432.533,2.289,2.289,0,0,0-.406.711,3.951,3.951,0,0,1-.406.762,1.808,1.808,0,0,1-.812.355q-.051,0-.152.127a2.31,2.31,0,0,0-.178.254.982.982,0,0,1-.127.178,4.406,4.406,0,0,0-.355.457,1.8,1.8,0,0,1-.508.508A2.077,2.077,0,0,0,6.6-1.777,1.152,1.152,0,0,0,7.16-.965ZM5.078-2.336l.1.1a10.432,10.432,0,0,0,1.168.813A4.858,4.858,0,0,1,5.281-5.383L5.434-6.6q.051-.1-.076-.279A.549.549,0,0,1,5.23-7.16q0-.355-.2-.457l-.2-.2a2.543,2.543,0,0,1-.609-.863,2.222,2.222,0,0,1,.508-2.184.863.863,0,0,0-.1-.965q-.355-.559-.406-.66a.418.418,0,0,0-.178-.3q-.178-.152-.127-.3a.229.229,0,0,0-.2-.3,2.485,2.485,0,0,0-.254-.152.639.639,0,0,1-.3-.686,1.093,1.093,0,0,0-.051-.635,9.682,9.682,0,0,0-1.4,5.84A9.539,9.539,0,0,0,3.91-3.5l.051.051V-3.4h.051a5.83,5.83,0,0,0,.457.559q.1.1.279.254t.229.2Z" transform="translate(0 21.125)" fill="#232323"/>
</svg>
