<svg xmlns="http://www.w3.org/2000/svg" width="20.824" height="29.265" viewBox="0 0 20.824 29.265">
  <g id="Cuisine_icon" data-name="Cuisine icon" transform="translate(-241.727 -229.993)">
    <g id="chef-Kitchen" transform="translate(241.727 229.993)">
      <path id="Path_177" data-name="Path 177" d="M256.318,254.478a.492.492,0,0,0,.5-.487v-.976a.5.5,0,0,0-.991,0v.976A.492.492,0,0,0,256.318,254.478Z" transform="translate(-247.89 -239.845)"/>
      <path id="Path_178" data-name="Path 178" d="M263.367,254.478a.492.492,0,0,0,.5-.487v-.976a.5.5,0,0,0-.991,0v.976A.492.492,0,0,0,263.367,254.478Z" transform="translate(-250.971 -239.845)"/>
      <path id="Path_179" data-name="Path 179" d="M259.08,249.015H256.7a5.265,5.265,0,0,0,.888-2.926v-.976h.5a1.476,1.476,0,0,0,1.488-1.463v-.975a1.476,1.476,0,0,0-1.488-1.463h-.5v-.488h.5a.492.492,0,0,0,.5-.488v-1.951a.493.493,0,0,0-.5-.488h-.5v-.654a2.914,2.914,0,0,0,1.817-3.732,2.983,2.983,0,0,0-4.2-1.6,3.5,3.5,0,0,0-4.7-1.414,3.448,3.448,0,0,0-1.438,1.414,2.972,2.972,0,0,0-4.373,2.573,2.916,2.916,0,0,0,1.49,2.539v.878a.493.493,0,0,0-.5.488v1.951a.492.492,0,0,0,.5.488h.5v.488h-.5a1.475,1.475,0,0,0-1.487,1.463v.975a1.475,1.475,0,0,0,1.487,1.463h.5v.976a5.265,5.265,0,0,0,.888,2.926H245.2a3.447,3.447,0,0,0-3.471,3.414v6.829h20.824v-6.829A3.447,3.447,0,0,0,259.08,249.015Zm-.992-6.828a.492.492,0,0,1,.5.488v.975a.492.492,0,0,1-.5.488h-.5v-1.951Zm-.5-2.439H246.685v-.975h10.907Zm-10.707-3.573a1.939,1.939,0,0,1-1.041-2.562,1.991,1.991,0,0,1,3.121-.7.5.5,0,0,0,.7-.047.485.485,0,0,0,.1-.176,2.489,2.489,0,0,1,3.1-1.618,2.463,2.463,0,0,1,1.645,1.618.5.5,0,0,0,.8.223,2,2,0,0,1,2.791.195,1.923,1.923,0,0,1-.2,2.745,1.99,1.99,0,0,1-.907.438.49.49,0,0,0-.4.478V237.8h-9.418v-1.176A.488.488,0,0,0,246.886,236.176Zm9.715,4.548v5.366a4.463,4.463,0,0,1-8.925,0v-5.366Zm-4.462,12.193a2.466,2.466,0,0,1-2.438-2.036,5.475,5.475,0,0,0,4.876,0A2.468,2.468,0,0,1,252.139,252.917Zm-5.95-8.779a.492.492,0,0,1-.5-.488v-.975a.492.492,0,0,1,.5-.488h.5v1.951Zm-3.47,14.145v-5.854a2.462,2.462,0,0,1,2.479-2.439h3.209c.092.086.184.171.281.249-.006.079-.02.162-.02.239a3.447,3.447,0,0,0,3.47,3.414H256.6v4.39Zm14.874,0v-4.878a.492.492,0,0,0-.5-.488h-2.533a3.376,3.376,0,0,0,1.046-2.438c0-.078-.014-.16-.02-.239.1-.079.189-.164.281-.249h3.21a2.463,2.463,0,0,1,2.479,2.439v5.854Z" transform="translate(-241.727 -229.993)"/>
      <path id="Path_180" data-name="Path 180" d="M263.862,274.193a.975.975,0,1,1-.991.976A.984.984,0,0,1,263.862,274.193Z" transform="translate(-250.971 -249.317)"/>
    </g>
    <path id="Path_181" data-name="Path 181" d="M260.6,260.786h-.843a.844.844,0,0,1-1.687,0h-.844a1.687,1.687,0,0,0,3.374,0Z" transform="translate(-6.778 -13.463)"/>
  </g>
</svg>
