<svg xmlns="http://www.w3.org/2000/svg" width="29.951" height="17.97" viewBox="0 0 29.951 17.97">
  <g id="Dining_table" data-name="Dining table" transform="translate(-2 -13.2)">
    <path id="Path_373" data-name="Path 373" d="M26.982,40.975h-1.5V33.987h4.992a1.5,1.5,0,1,0,0-3h-4.9l.4-2.414A.5.5,0,0,0,25.484,28h-.028c-.131-1.167-.72-2-1.469-2s-1.338.83-1.469,2h-.028a.5.5,0,0,0-.492.582l.4,2.414H17.5a1.5,1.5,0,1,0,0,3h4.992v6.989h-1.5a1.5,1.5,0,1,0,0,3h5.99a1.5,1.5,0,1,0,0-3ZM23.987,27c.1,0,.362.353.46,1h-.919C23.624,27.352,23.887,27,23.987,27Zm-.908,2h1.816l-.332,2H23.411ZM17,32.489a.5.5,0,0,1,.5-.5H30.476a.5.5,0,1,1,0,1H17.5A.5.5,0,0,1,17,32.489Zm6.489,1.5h1v6.989h-1Zm3.494,8.985h-5.99a.5.5,0,0,1,0-1h5.99a.5.5,0,0,1,0,1Z" transform="translate(-7.011 -12.8)"/>
    <path id="Path_374" data-name="Path 374" d="M9.488,37.987H5V31.5a1.5,1.5,0,0,0-3,0V44.476a1.5,1.5,0,1,0,3,0V40.982h3v3.494a1.5,1.5,0,1,0,3,0V39.484A1.5,1.5,0,0,0,9.488,37.987Zm.5,6.489a.5.5,0,0,1-1,0V40.483a.5.5,0,0,0-.5-.5H4.5a.5.5,0,0,0-.5.5v3.993a.5.5,0,0,1-1,0V31.5a.5.5,0,1,1,1,0v6.989a.5.5,0,0,0,.5.5H9.488a.5.5,0,0,1,.5.5Z" transform="translate(0 -14.803)"/>
    <path id="Path_375" data-name="Path 375" d="M51.488,30a1.5,1.5,0,0,0-1.5,1.5v6.489H45.5a1.5,1.5,0,0,0-1.5,1.5v4.992a1.5,1.5,0,1,0,3,0V40.982h3v3.494a1.5,1.5,0,1,0,3,0V31.5a1.5,1.5,0,0,0-1.5-1.5Zm.5,14.476a.5.5,0,0,1-1,0V40.483a.5.5,0,0,0-.5-.5H46.5a.5.5,0,0,0-.5.5v3.993a.5.5,0,0,1-1,0V39.484a.5.5,0,0,1,.5-.5h4.992a.5.5,0,0,0,.5-.5V31.5a.5.5,0,1,1,1,0Z" transform="translate(-21.034 -14.803)"/>
  </g>
</svg>
