<svg xmlns="http://www.w3.org/2000/svg" width="13.5" height="13.5" viewBox="0 0 13.5 13.5">
  <path id="Path_382" data-name="Path 382" d="M-5.783-3.533a.548.548,0,0,1-.4.158.548.548,0,0,1-.4-.158.548.548,0,0,1-.158-.4V-11.25a2.162,2.162,0,0,1,.668-1.582A2.162,2.162,0,0,1-4.5-13.5h9a2.162,2.162,0,0,1,1.582.668A2.162,2.162,0,0,1,6.75-11.25v9A2.162,2.162,0,0,1,6.082-.668,2.162,2.162,0,0,1,4.5,0H-2.812a.548.548,0,0,1-.4-.158.548.548,0,0,1-.158-.4.548.548,0,0,1,.158-.4.548.548,0,0,1,.4-.158H4.5a1.081,1.081,0,0,0,.791-.334,1.081,1.081,0,0,0,.334-.791v-9a1.081,1.081,0,0,0-.334-.791,1.081,1.081,0,0,0-.791-.334h-9a1.081,1.081,0,0,0-.791.334,1.081,1.081,0,0,0-.334.791v7.313A.548.548,0,0,1-5.783-3.533ZM-3.2-3.551a.46.46,0,0,1,0-.773L1.441-9H-.281a.548.548,0,0,1-.4-.158.548.548,0,0,1-.158-.4.548.548,0,0,1,.158-.4.548.548,0,0,1,.4-.158H2.813a.548.548,0,0,1,.4.158.548.548,0,0,1,.158.4v3.094a.548.548,0,0,1-.158.4.548.548,0,0,1-.4.158.547.547,0,0,1-.4-.158.548.548,0,0,1-.158-.4V-8.191L-2.426-3.551a.468.468,0,0,1-.387.176A.468.468,0,0,1-3.2-3.551Z" transform="translate(6.75 13.5)" fill="#cb007b"/>
</svg>
