<svg xmlns="http://www.w3.org/2000/svg" width="21.173" height="21.157" viewBox="0 0 21.173 21.157">
  <path id="Phone_icon" data-name="Phone icon" d="M7.033-20.312a1.849,1.849,0,0,0-1.193.432l-.051.025L3.225-17.215l.025.025a2.478,2.478,0,0,0-.762,1.282,2.522,2.522,0,0,0,.076,1.46v.025a22.918,22.918,0,0,0,1.9,4.063A26.014,26.014,0,0,0,8.455-5.205,26.446,26.446,0,0,0,17.672.686H17.7a2.779,2.779,0,0,0,1.485.1,2.873,2.873,0,0,0,1.333-.66L23.08-2.437a1.707,1.707,0,0,0,.508-1.257,1.707,1.707,0,0,0-.508-1.257l-3.3-3.3L19.754-8.3a1.722,1.722,0,0,0-1.27-.508,1.722,1.722,0,0,0-1.27.508L15.59-6.678a13.185,13.185,0,0,1-3.326-2.285,9.935,9.935,0,0,1-2.26-3.3l1.625-1.625a1.692,1.692,0,0,0,.508-1.244,1.652,1.652,0,0,0-.533-1.244l.025-.025L8.3-19.83l-.076-.051A1.849,1.849,0,0,0,7.033-20.312Zm0,1.625a.313.313,0,0,1,.178.076l3.326,3.4h0a.176.176,0,0,1-.051.178L8.455-13l-.381.355.178.508.3.711a15.2,15.2,0,0,0,.965,1.7A12.613,12.613,0,0,0,11.146-7.77l.178.152a14.394,14.394,0,0,0,1.9,1.447,14.634,14.634,0,0,0,1.574.914l1.143.533L18.383-7.16q.076-.076.1-.076t.1.076l3.4,3.4q.051.051.051.063t-.051.063L19.449-1.092a1.221,1.221,0,0,1-1.244.229A24.884,24.884,0,0,1,9.6-6.348,24.14,24.14,0,0,1,5.865-11.2,22.749,22.749,0,0,1,4.088-14.98a.927.927,0,0,1-.025-.571.922.922,0,0,1,.279-.5l2.514-2.564A.313.313,0,0,1,7.033-18.687Z" transform="translate(-2.415 20.313)" fill="#232323"/>
</svg>
