<svg xmlns="http://www.w3.org/2000/svg" width="18" height="14" viewBox="0 0 18 14">
  <path id="Path_381" data-name="Path 381" d="M8.875-10.625A5.67,5.67,0,0,1,8.25-8.562,7.72,7.72,0,0,1,6.875-6.75,10.832,10.832,0,0,1,4.188-4.812,12.886,12.886,0,0,1,.75-3.625V-1.5A1.4,1.4,0,0,1,.313-.375,1.493,1.493,0,0,1-.687,0a1.272,1.272,0,0,1-.937-.375L-8.375-5.75A1.483,1.483,0,0,1-9-6.937a1.622,1.622,0,0,1,.5-1.187l6.875-5.5A1.2,1.2,0,0,1-.75-14l.625.125a2.732,2.732,0,0,1,.625.563,1.261,1.261,0,0,1,.25.813v1.75a16.023,16.023,0,0,0,5.875-2.5,1.436,1.436,0,0,1,.813-.25,1.436,1.436,0,0,1,.813.25,1.613,1.613,0,0,1,.563.625,1.664,1.664,0,0,1,.188.75A3.656,3.656,0,0,1,8.875-10.625Zm-8.75,1.5L-.75-9v-3.375L-7.5-7-.75-1.5V-5L0-5.125A8.9,8.9,0,0,0,3.188-6,9.689,9.689,0,0,0,5.875-7.875a9.037,9.037,0,0,0,1-1.437A7.166,7.166,0,0,0,7.5-11l.125-.875a17.162,17.162,0,0,1-3.5,1.75A12.794,12.794,0,0,1,.125-9.125Z" transform="translate(9) rotate(180)" fill="#cb007b"/>
</svg>
