<svg xmlns="http://www.w3.org/2000/svg" width="30.11" height="26.316" viewBox="0 0 30.11 26.316">
  <g id="Wallet_icon" data-name="Wallet icon" transform="translate(-361.33 -1593.69)">
    <path id="Path_168" data-name="Path 168" d="M1.08,21.835V10.092A2.275,2.275,0,0,1,3.386,7.847H25.944a2.275,2.275,0,0,1,2.306,2.244V28.3a2.275,2.275,0,0,1-2.306,2.244H3.386A2.275,2.275,0,0,1,1.08,28.3V26.151" transform="translate(361 1588.711)" fill="none" stroke="#232323" stroke-linecap="round" stroke-linejoin="round" stroke-width="1.5"/>
    <path id="Path_169" data-name="Path 169" d="M25.944,12.591H3.386A2.275,2.275,0,0,1,1.08,10.347v-.255A2.275,2.275,0,0,1,3.386,7.847H25.944a2.275,2.275,0,0,1,2.306,2.244v6.292" transform="translate(361 1588.711)" fill="none" stroke="#232323" stroke-linecap="round" stroke-linejoin="round" stroke-width="1.5"/>
    <path id="Path_170" data-name="Path 170" d="M15.35,16.185H32.144a2.275,2.275,0,0,1,2.306,2.244V24.3" transform="translate(354.801 1585.089)" fill="none" stroke="#232323" stroke-linecap="round" stroke-linejoin="round" stroke-width="1.5"/>
    <path id="Path_171" data-name="Path 171" d="M6.923,8.706,8.347,3.661,27.941,8.706" transform="translate(358.462 1590.53)" fill="#fff" stroke="#232323" stroke-linecap="round" stroke-linejoin="round" stroke-width="1"/>
    <line id="Line_3" data-name="Line 3" x2="22.214" transform="translate(364.189 1599.235)" fill="none" stroke="#232323" stroke-linecap="round" stroke-linejoin="round" stroke-width="1"/>
    <path id="Path_172" data-name="Path 172" d="M45.036,31.622a1.138,1.138,0,0,1-1.153,1.122H38.222l-2.394-3.52,2.394-3.52h5.662a1.138,1.138,0,0,1,1.153,1.122Z" transform="translate(345.904 1580.953)" fill="none" stroke="#232323" stroke-linecap="round" stroke-linejoin="round" stroke-width="1"/>
    <path id="Path_173" data-name="Path 173" d="M45.036,24.616v6.533a1.138,1.138,0,0,1-1.153,1.122H38.222l-2.394-3.52,2.394-3.52h3.409" transform="translate(345.904 1581.426)" fill="#fff" stroke="#232323" stroke-linecap="round" stroke-linejoin="round" stroke-width="1"/>
    <path id="Path_174" data-name="Path 174" d="M43.293,31.069a1.031,1.031,0,1,1-1.031-1A1.017,1.017,0,0,1,43.293,31.069Z" transform="translate(343.557 1579.058)" fill="none" stroke="#232323" stroke-linecap="round" stroke-linejoin="round" stroke-width="1"/>
    <path id="Path_175" data-name="Path 175" d="M47.734,22.784h.723a.837.837,0,0,1,.848.826h0a.837.837,0,0,1-.848.826h-2.8" transform="translate(341.633 1582.222)" fill="none" stroke="#232323" stroke-linecap="round" stroke-linejoin="round" stroke-width="1"/>
  </g>
</svg>
