<svg xmlns="http://www.w3.org/2000/svg" width="25.666" height="25.243" viewBox="0 0 25.666 25.243">
  <g id="Allergen_icon" data-name="Allergen icon" transform="translate(0.75 0.75)">
    <path id="Path_55" data-name="Path 55" d="M7.612,24.258a11.718,11.718,0,0,1,0-16.784,12.239,12.239,0,0,1,17.088,0,11.719,11.719,0,0,1,0,16.784,12.254,12.254,0,0,1-14.468,1.955" transform="translate(-4.072 -3.999)" fill="none" stroke="#232323" stroke-linecap="round" stroke-linejoin="round" stroke-width="1.5"/>
    <path id="Path_56" data-name="Path 56" d="M24.106,10.836a9.426,9.426,0,0,1,3.416,12.8,9.226,9.226,0,0,1-12.715,3.273,9.427,9.427,0,0,1-3.416-12.8A9.2,9.2,0,0,1,21.758,9.846" transform="translate(-7.373 -7.005)" fill="none" stroke="#232323" stroke-linecap="round" stroke-linejoin="round" stroke-width="1.5"/>
    <line id="Line_1" data-name="Line 1" x2="14.586" y2="11.12" transform="translate(4.79 6.308)" fill="none" stroke="#232323" stroke-linecap="round" stroke-linejoin="round" stroke-width="1.5"/>
    <line id="Line_2" data-name="Line 2" y1="9.585" transform="translate(9.062 7.303)" fill="none" stroke="#232323" stroke-linecap="round" stroke-linejoin="round" stroke-width="1.5"/>
    <line id="Line_3" data-name="Line 3" y1="9.585" transform="translate(14.174 7.303)" fill="none" stroke="#232323" stroke-linecap="round" stroke-linejoin="round" stroke-width="1.5"/>
    <path id="Path_57" data-name="Path 57" d="M23.483,20v2.054a2.3,2.3,0,0,1-2.324,2.282h0a2.3,2.3,0,0,1-2.324-2.282V20" transform="translate(-12.097 -12.696)" fill="none" stroke="#232323" stroke-linecap="round" stroke-linejoin="round" stroke-width="1.5"/>
    <path id="Path_58" data-name="Path 58" d="M35.35,20a2.565,2.565,0,0,1,2.622,2.363,2.406,2.406,0,0,1-2.427,2.384" transform="translate(-21.073 -12.696)" fill="none" stroke="#232323" stroke-linecap="round" stroke-linejoin="round" stroke-width="1.5"/>
  </g>
</svg>
