<svg xmlns="http://www.w3.org/2000/svg" width="24.883" height="19.44" viewBox="0 0 24.883 19.44">
  <g id="Cooking" transform="translate(0 -7)">
    <path id="Path_396" data-name="Path 396" d="M9.389,16.333h.741a1.579,1.579,0,0,0-.034.319,1.544,1.544,0,0,0,.456,1.1c.338.339,2.611,2.081,3.608,2.081a.664.664,0,0,0,.488-.184c.361-.361.2-1.034-.55-2.252a12.888,12.888,0,0,0-1.347-1.844,1.547,1.547,0,0,0-1.418-.422v-.741a.389.389,0,1,0-.778,0v.617l-.5-.5a.389.389,0,1,0-.55.55l.5.5H9.389a.389.389,0,0,0,0,.778ZM12.2,16.1a10.787,10.787,0,0,1,1.843,2.939A10.533,10.533,0,0,1,11.1,17.2a.778.778,0,1,1,1.1-1.1Z" transform="translate(-6.501 -2.278)" fill="#232323"/>
    <path id="Path_397" data-name="Path 397" d="M46.944,29.888A1.944,1.944,0,1,0,45,27.944,1.944,1.944,0,0,0,46.944,29.888Zm0-3.11a1.166,1.166,0,1,1-1.166,1.166A1.166,1.166,0,0,1,46.944,26.778Z" transform="translate(-27.504 -11.613)" fill="#232323"/>
    <path id="Path_399" data-name="Path 399" d="M37.944,19.888A1.944,1.944,0,1,0,36,17.944a1.944,1.944,0,0,0,1.944,1.944Zm0-3.11a1.166,1.166,0,1,1-1.166,1.166A1.166,1.166,0,0,1,37.944,16.778Z" transform="translate(-26.003 -2.501)" fill="#232323"/>
    <path id="Path_413" data-name="Path 413" d="M10.673,42.648A10.886,10.886,0,0,0,18.9,46.277a.389.389,0,1,0,0-.778,10.118,10.118,0,0,1-7.652-3.37.389.389,0,1,0-.579.519Z" transform="translate(-6.463 -21.392)" fill="#232323"/>
    <path id="Path_414" data-name="Path 414" d="M24.494,35H23.328a.389.389,0,0,0-.389.389v.778h-21v-.778A.389.389,0,0,0,1.555,35H.389a.389.389,0,1,0,0,.778h.778v.778a.117.117,0,0,0,0,.012.382.382,0,0,0,.024.121c0,.009.006.019.01.028a.144.144,0,0,0,.006.018,12.458,12.458,0,0,0,11.232,6.819,12.458,12.458,0,0,0,11.232-6.819c0-.006,0-.012.006-.018l.01-.028a.385.385,0,0,0,.024-.121.117.117,0,0,0,0-.012v-.778h.778a.389.389,0,1,0,0-.778ZM12.442,42.776A11.674,11.674,0,0,1,2.216,36.944H22.671A11.674,11.674,0,0,1,12.442,42.776Z" transform="translate(0 -17.114)" fill="#232323"/>
    <path id="Path_415" data-name="Path 415" d="M22.548,11.627a.389.389,0,0,0,.348,0c.261-.133,2.548-1.322,2.548-2.877A1.752,1.752,0,0,0,23.694,7a1.729,1.729,0,0,0-.972.3A1.729,1.729,0,0,0,21.75,7,1.752,1.752,0,0,0,20,8.75C20,10.3,22.287,11.494,22.548,11.627Zm-.8-3.849a.962.962,0,0,1,.694.293.4.4,0,0,0,.557,0,.962.962,0,0,1,.694-.293.972.972,0,0,1,.972.972c0,.836-1.274,1.715-1.944,2.087-.67-.372-1.944-1.251-1.944-2.087A.972.972,0,0,1,21.75,7.778Z" transform="translate(-7.224)" fill="#232323"/>
    <path id="Path_416" data-name="Path 416" d="M51.389,42.774a.385.385,0,0,0,.389-.389.4.4,0,0,0-.113-.276.389.389,0,1,0-.276.665Z" transform="translate(-31.171 -21.389)" fill="#232323"/>
    <path id="Path_417" data-name="Path 417" d="M36.385,50.785a.389.389,0,0,0,.276-.665.407.407,0,0,0-.552,0,.389.389,0,0,0,.276.665Z" transform="translate(-22 -26.289)" fill="#232323"/>
  </g>
</svg>
